<?xml version="1.0" encoding="UTF-8"?>
<svg id="Layer_1" data-name="Layer 1" xmlns="http://www.w3.org/2000/svg" viewBox="0 0 883.64 1178.18">
  <defs>
    <style>
      .cls-1 {
        fill: #dbfced;
      }

      .cls-2 {
        fill: #8b8b8b;
      }

      .cls-3 {
        fill: #fcfcfc;
      }

      .cls-4 {
        fill: #fbc5e1;
      }

      .cls-5 {
        fill: #f9fcfb;
      }

      .cls-6 {
        fill: #c4fce1;
      }

      .cls-7 {
        fill: #e5e5e5;
      }

      .cls-8 {
        fill: #dafded;
      }

      .cls-9 {
        fill: #fbfbfb;
      }

      .cls-10 {
        fill: #737373;
      }

      .cls-11 {
        fill: #aefcd7;
      }

      .cls-12 {
        fill: #666;
      }

      .cls-13 {
        fill: #fed2e9;
      }

      .cls-14 {
        fill: #dafeed;
      }

      .cls-15 {
        fill: #c5b5fe;
      }

      .cls-16 {
        fill: #d9fded;
      }

      .cls-17 {
        fill: #b0fcd8;
      }

      .cls-18 {
        fill: #dbfded;
      }

      .cls-19 {
        fill: #fec2e1;
      }

      .cls-20 {
        fill: #bdaafe;
      }

      .cls-21 {
        fill: #a891fc;
      }

      .cls-22 {
        fill: #cef3e2;
      }

      .cls-23 {
        fill: #fcfbfc;
      }

      .cls-24 {
        fill: #affcd7;
      }

      .cls-25 {
        fill: #e1f3eb;
      }
    </style>
  </defs>
  <path class="cls-19" d="M356.67,313.31c1.05-.52,2.27-.38,3.65.43,9.65,1.34,19.3-.02,28.93-4.07,3.84-1.5,7.37-1.58,10.56-.23,5.79-1.47,12.06-1.39,18.11-.71,5.21.59,12.48,1.55,16.16,5.12,1.51-1.37,6.01.8,6.54,2.73,6.52,2.78,12.8,6.41,19.26,9.36,15.21,6.97,27.8,9.88,38.52,24.18,7.09,9.46,6.53,14.73,9.28,25.34,1.83.22,3.13,4.88,1.64,6l1.29.79c1.27,4.41,3.53,8.39,6.8,11.93,7.57,10.16,4.46,21.91-.2,32.55-.79,2.32-1.05,4.76-.61,7.16,2.98,12.09,4.03,26.1-2.91,36.98,1.1,2.74-.17,6.08-2.18,8.18-4.11,2.65-4.29,6.03-6.65,9.98-3.53,5.91-6.75,8.14-11.61,12.37-5.6,4.87-5.08,14.53-12.01,20.16-6.29,5.11-13.77,4.78-20.86,6.94-2.36.72-4.39,2.27-6.66,3.15s-6.38,2.64-8.71,1.37c-1.07-2.05-.36-4.8,1.64-6,.87-.91,2.22-1.47,4.03-1.67,5.89-3.41,12.12-4.76,18.82-5.93,4.76-1.03,9.03-3.4,11-8.04,2.44-9.15,6.92-14.79,14.23-20.63,10.52-16.11,19.95-36.29,13.74-55.85-.44-6.86.88-13.57,3.96-20.15,2.73-10.24.64-13.9-5.95-21.55-3.85-8.39-6.61-17.32-8.27-26.78-3.94-13.23-14.88-22.59-27.38-27.76-10.69-4.3-21.12-9.25-31.37-14.52-15.34-8.61-32.14-8.65-49.01-6.49-12.65,5.55-25.97,7.72-39.33,2.52-2.92-.64-5.93-.56-9.04.24-6.56-.88-12.93-.84-19.1.11-7.45,4.54-14.25,10.23-20.38,17.05-13.73,8.22-23.8,17.92-29.94,33.02-6.02,14.02-12.14,27.85-18.37,41.49l-.86,6.26c-.37,3.35-1.56,5.04-3.56,5.09-2.91-4.26-9.13-10.98-13.08-14.72-2.54-4.11-4.99-8.29-7.35-12.54-3.06-4.74-7.75-10.45-13.01-5.19l-1.44-.26c-3.41-3.04-4.99-4.13-7.63-8.18,0-.36,0-.72.08-1.06.95-4.21,21.6-11.36,26.8-11.89.87-8.15,7.42-9.18,8.49-.4l2.81,2.28c3.63,6.62,6.61,13.64,8.95,21.04,6.06-15.72,13.57-30.57,22.54-44.57,1.25-.42,1.25-.62.01-.6-11.92-10.86-25.18-15.44-40.1-7.64-8.57,1.3-17.3.63-26.2-2.01-9.51-1.21-13.25-.67-18.39,7.53-4.86,10.71-11.75,19.94-18.97,29.25-19.95,29.62-1.61,43.65,29.07,46.22l1.11,1.11c-.19,2.07-1.14,4.11-1.64,6-15.93-1.34-36.88-7.21-43.08-23.7-7.33-19.5,10.36-34.61,19.65-49.06,7.13-11.09,9.32-25.16,25.85-24.84,2.66.05,4.9.19,7.56.19,4.53,0,11.06,3.13,15.88,3.12,7.29-.03,13.84-4.54,20.89-5.32,7.46-.82,15.32,1.57,21.75,5.21,4.19,2.37,9.9,6.12,11.9,10.45,3.86-4.14,9.24-6.48,13.62-9.82,8.34-6.36,18.93-20.91,29.43-21.82,8.02-.69,17.48.12,25.37.56,1.01-1.57,5.6-1.33,6,.55ZM247.1,412.54c-.94-2.62,4.97-10.54,4.85-11.74-.04-.4-1.38-.89-1.8-1.4-3.08-3.79-8.06-22.08-9.07-22.84-2.43,1.12-5.18.19-7.76.67-3.33.62-7.6,3.51-11.3,3.7l5.47,2.97c3.71,3.79,7.4,7.68,10.07,12.28,3.16,5.43,4.69,12.07,9.52,16.37Z"/>
  <path class="cls-7" d="M539.28,875.41c.96.73.64,1.62-.97,2.67,1.58,3.94,3.84,7.7,6.78,11.26,1.97,2.83,1.18,6.15.3,9.25l-4.7,13.33c.13.39,5.7,5.18,6.22,4.74,1.09-13.4,5.59-17.33,13.51-11.81l5.76,4.03c1.95-1.32,3.47-1.34,5.66-.76,3.47-4.29,8.56-5.21,12.13-.54l-2.55-4.89c-.67-4.85-2.25-8.87-4.76-12.06-2.81-.48-4.37-1.54-4.69-3.2,3.43-.12,7.1-.49,10.36-1.64,3.23,4.04,3.74,9.27,5.43,13.93,1.2,3.32,3.97,7.14,4.27,11.04.38,4.85-3.28,9.16-3.2,12.93.13,6.34,1.38,14.26,2.32,20.63,3.07,20.84,8.17,42,16.27,61.43,1.22-.4,1.94-.79,3.26-1.09-1.43,3.82-1.97,8.82-5.45,11.45-.98-.18-1.19-.9-.62-2.16-13.45-23.25-17.85-52.5-21.77-79.18.17-2.22-1.19-21.97-4.33-20.96-2.06,2.45-4.86,4.63-8.02,2.87l1.28,11.21c7.98,35.67,16.3,71.12,24.95,106.35l-.2,3.14c-2.59,2.85-4.29.71-6.54.55l-1.22-.4-23.17-97.87c-4.31,17.07-8.11,35.34-1.99,52.46,5.23,12.7,9.6,25.66,13.13,38.9,1.03,2.77,1.09,5.25.17,7.45-2.01.23-4.54.68-6.54,1.09-2.2-13.17-6.16-25.97-11.86-38.42-11.23-25.08-5.11-52.7,3.08-77.2,1.79-6.94,1.66-8.33-5.02-11.69-5.22,17.57-8.52,34.92-5.63,53.43,3.82,24.43,5.94,49.09,6.36,73.96-.12,3.05-1.11,2.15-.17,1.27.74-.69,11.19-3.45,12.15-1.34-5.84,1.31-14.66,4.59-20.17,7.09.9-.94,1.02-1.71,1.13-2.96,1.17-14.11-.81-32.64-2.22-46.92-2.34-23.73-8.51-47.7-2.14-71.34-2.46-2.54-11.77-8.57-12.46-11.65-1.03-4.54,5.04-15.12,5.77-20.16.01-.62-2.83-4.77-3.46-5.61-.38-.51-1.27-.48-1.33-.56-1.61.71-3.97-3.16-2.73-4.36-1.11-1.41-2.37-5.57-1.97-7.45.37-1.76,2.74-5.39,4.69-4.55,1.47,1.43,3.3,3.08,4.91,4.36Z"/>
  <path class="cls-11" d="M526.75,462.7c-.09,2.35.06,4.73,0,7.09-4.96,3.39-10.27,6.05-15.26,9.27.77-2.69,1.38-5.5,2.18-8.18,2.27-2.94,8.35-7.23,11.84-8.69l1.24.51Z"/>
  <path class="cls-3" d="M605.24,1016.08c-1.46,7.93-5.81,16.08-7.64,23.99-.62-.12-.84-1.93-1.08-2.72-3.25-10.44-4.81-20.56-7.35-31.08-5.6-23.23-12.03-46.37-16.91-69.77-1.42-6.8-2.43-13.49-2.99-20.43.86-1.49,1.83.02,3.12.14,2.88.26,4.54-2.58,6.42-4.24,5.71,6.19,4.19,15.42,5.18,23.16,2.97,23.26,8.48,51.08,18.06,72.44.59,1.33,3.54,5.8,3.61,6.15.09.41-.3,1.75-.41,2.38Z"/>
  <path class="cls-3" d="M569.27,1039.52c-4.5,0-8.8,1.6-13.08,2.72.14-12.82-.53-25.66-1.64-38.43-1.78-20.34-7.02-42.97-5.38-63.18.81-9.96,4.74-20.47,6.48-30.33,2.46,1.87,6.99,3.33,7.92,6.52,1.08,3.7-3.58,14.81-4.73,19.31-3.11,12.27-6.31,27.81-5.37,40.41,1.58,21.31,15.5,40.48,17.77,61.35.13,1.2.29.95-.88,1.63-.33.07-.77-.07-1.09,0Z"/>
  <g>
    <path class="cls-11" d="M610.7,1004.63c5.13-1.14,13.17-.25,15.67,5.32,1.11,2.48,2.16,9.52,2.34,12.38.34,5.21-.77,10.38-1.11,15.56,4.28-3.62,7.3-8.53,10.91-12.8,2.34-2.77,10.27-12.76,12.55-14.17,9.85-6.08,10.24,9.36,9.81,15.27-1.11,15.2-7.92,20.37-14.97,31.92-1.06,1.73-6.42,11.15-6.73,12.36-1.19,4.66,1.43,12.48.42,17.59.18.25,4.62-2.87,5.16-3.28,14.1-10.8,31.82-25.56,43.63-38.69,5.37-5.98,16.37-24.23,24.04-25.05,10.29-1.09,9.79,16.29,8.11,22.86-1.35,5.28-5.04,11.43-7.89,16.1-6.43,10.54-14.56,20.43-22.65,29.72-.05,2.69-.58,5.93,3.04,5.21,11.16-2.25,28.44-14.91,38.85-20.58,7.04-3.84,19.57-11.6,20.03,2.54.43,13.41-13.16,21.63-22.98,28.3-11.25,7.64-22.82,13.95-33.69,22.46-23.23,18.19-35.2,38.11-69.03,35.68-3.14-.23-8.6-2.21-10.9-2.14-.76.02-5.27,2.91-7.86,3.5-36.66,8.27-71.56-14.31-107.66-16.13-19.16-.96-49.56,7.46-65.66-2.48-8.57-5.28-9.57-10.99-5.42-20.05,2.97-6.48,7.67-11.81,15.31-11.65,6.83.15,15.83,3.92,23.57,4.23,20.21.82,41.49-12.22,59.75-19.38-.04-3.22,2.33-4.69,3.67-7.2,3.56-6.65,5.59-14.55,6.64-21.97-4.96,3.16-6.33,2.39-6.13-3.67,5.24-5.24,10.98-16.77,17.59-19.78l1.71-1.94c5.91-2.25,12.14-4.04,18.46-5.15.3-1.06.78-1.05,1.09,0,1.46-1.46,4.69-3,6.54-1.09,3.1-2.2,9.92-2.61,13.08-.55.63-.96,1.86-1.01,3.69-.16,1.16-.55,2.11-.68,2.86-.38h.82c2.21-6.61,4.38-13.23,6.49-19.86l1.4-1.4c1.56-3.3,2.94-6.73,3.97-10.33l1.48-1.12Z"/>
    <path class="cls-14" d="M622.69,1028.07c-1.36,1.92-1.51,2.73-.55,4.91-1.09,10.99-3.86,23.03-6.16,33.91-1.67,7.9-5.38,18.39-6.33,25.84-.16,1.29-.29,4.02.23,5.13.85,1.81,2.3.44,3,.55.56-.89,1.66-.89,3.3,0,2.9-.25,9.26-19.99,10.21-23.63,2.86-10.91,5.63-21.84,8.27-32.81l2.2-4.08c1.63-1.89,3.16-4.72,4.92-6.8,4.15-4.9,8.33-9.84,12.8-14.46,1.37,4.02.72,7.95,0,12-2.19,12.54-8.55,17.3-14.55,27.43-2.65,4.48-7.17,12-6.99,16.99.26,7.39,1.37,14.16,1.1,21.83-.04,1.2-1,2.18-.85,3.02.12.67,1.46,4.45,1.81,5.25,1.98,4.55,4.53,3.76,5.01-.93.17-1.48,1.4-2.14,3.69-2,9.81-9.64,19.3-19.88,28.47-30.71,6.85-6.13,14.94-13.33,20.99-20.16,4.21-4.75,13.73-19.94,18.78-21.59,2.7-.88,3.65,4.55,3.82,6.59,1.38,16.71-23.08,41.93-32.92,54.85-3.93,5.17-7.76,9.4-8.44,16.11-.11,1.05-.61,2.11,1.02,1.82l-.54,2.35c-15.73,21.07-33.75,39.31-59.97,45.08-5.29-1.1-10.73-2.13-16.08-2.73l.82,1.64c-1,.42-2.03.62-3.11.6-19.14-4.36-38.44-7.31-57.9-8.86-5.6.39-11.06.41-16.4.09-6.79-.08-15.28-2.41-22.6-2.75-13.5-.62-25.63,1.9-38.7,2.23-6.55.16-27.07-1.11-28.62-9.59-.78-4.26,4.47-13.9,9.04-14.38,4.4-.47,14.77,3.08,20.18,3.71,20.65,2.42,47.43-10,65.99-18.92,3.71-1.78,12.03-7.47,14.89-8.27,1.03-1.21,1.58-1.21,1.64,0-.3,1.61-.53,4.82,1.46,4.78,1.58-.03,10.91-9.66,13.32-11.54,18.27-14.29,28.91-14.61,39.66-38.3,5.79-12.74,10.91-27.88,13.16-41.63,2.61-.09,7.73-.1,9.21,2.52,1.61,2.84,1.78,11.51,1.7,14.93Z"/>
    <path class="cls-6" d="M675.56,1107.12c2.85-3.4,6.96-5.89,9-10.36,1.67,4.62,5.12,5.31,9.52,4.07,14.26-4.03,28.17-14.7,41.08-21.61,2.13-1.14,7.27-4.03,9.39-4.25,1.22-.13.58.11.8.79,3.2,9.75-8.98,16.9-15.55,21.55-9.47,6.71-20.19,12.76-29.88,19.73-21.47,15.43-41.6,42.73-70.41,40.78-5.27-.36-9.75-2.29-14.45-3.26,3.4-2.97,8.36-3.44,12.53-5.19,23.8-9.98,32.39-23.65,47.98-42.25Z"/>
    <path class="cls-6" d="M544.19,1097.31c-.5.08-1.21-.12-1.64,0,2.49-2.42.17-5.47-2.97-4.91-.6.11-3.03,2.16-2.47.29.62-2.07,2.12-4.56,2.86-6.96,1.33-4.28,2.82-9.13,3.67-13.5l1.65-2.41c9.3-6.36,17.77-13.93,24.74-22.81l2.5-1.5c2.53-.33,5.42-.97,7.88-1.11,3.86-.23,9.63.67,13.09.01,1.25-.24,1.48-1.18,2.46-1.62-3.04,10.52-8.49,19.89-16.89,26.99-6.96,5.89-15.91,9.81-23.15,15.55-2.2,1.75-11.35,9.84-11.74,11.97Z"/>
    <path class="cls-6" d="M599.79,1153.47l8.18,5.45c-8.87,1.2-16.93,1.97-25.89,1.09-17.49-1.71-33.75-8.15-50.57-12.12-3.04-.72-6.12-1.76-9.12-2.6,3.1.04,6.04-.99,8.97-1.11,23.51-.96,45.46,5.67,68.43,9.29Z"/>
    <path class="cls-6" d="M612.88,1098.4c-.03-1.39,1.22-1.27,1.93-2.71.86-1.74,1.59-5.53,2.17-7.65,1.58-5.83,7.63-37.96,9.23-39.84,2.68-3.16,7.54-6.7,10.67-10.32-3.34,12.31-5.93,24.93-9.42,37.19-1.24,4.36-6.86,21.65-9.89,23.91-1.75,1.3-2.92-.31-4.67-.58Z"/>
    <path class="cls-14" d="M572.54,1045.52c-7.8,10.59-17.88,19.53-28.89,26.71.44-2.23,1.51-7.92.72-9.71-.33-.74-1.18-.64-1.22-.7-.59-1,5.25-7.36,6.48-8.41,6.73-5.75,14.44-6.79,22.9-7.9Z"/>
    <path class="cls-6" d="M640.13,1102.22c.18-1.73-.82-6.35-.44-6.98.22-.37,6.07-3.59,7.24-4.48,8.48-6.41,17.43-14.16,25.36-21.25-2.79,4.22-6.02,8.4-9.28,12.25-3.3,3.9-6.88,7.29-10.37,10.9-2.18,2.25-5.04,6.52-7.63,8.17-2.14,1.36-3.2-.09-4.88,1.39Z"/>
    <path class="cls-6" d="M622.14,1032.98c-2.55-1.28-2.26-4.21.55-4.91-.04,1.93-.38,3.2-.55,4.91Z"/>
  </g>
  <path class="cls-13" d="M249.83,423.44c3.42-3.35,2.4-8.93,3.72-12.91,1.03-3.12,3.7-6.95,5.1-10.16,6.69-15.27,15.84-41.9,27.99-52.69,4.56-4.05,10.38-6.96,15.23-10.93,6.79-5.56,15.15-17.23,23.98-18,5.6-.48,11.62.67,16.89.58,1.37-.02,2.88-.78,4.38-.81,4.12-.08,10.91,3.02,15.89,3.44,6.35.54,11.59-.14,17.64-1.84,2.48-.7,7.87-3.34,9.59-3.54,3.8-.43,9.55-.82,13.58-1.09,22.77-1.54,33.22,6.77,52.4,15.73,13.04,6.09,24.82,8.76,34.82,20.24,10.93,12.55,8.66,23.28,14.32,37.47,2.88,7.21,9.76,9.75,9.4,18.99-.35,9.07-6.17,15.35-5.46,25.05.28,3.89,1.85,8.11,2.16,12.01,1.19,14.77-4.94,25.66-10.8,38.25-3.22,6.91-5.72,9.24-11.27,13.81-6.6,5.43-5.55,13.1-10.35,18.54s-14.23,5.24-20.87,7.47c-3.88,1.3-7.22,4.45-11.57,3.97,2.31-7.97,6.05-18.78,7.09-26.71l.91-.91c4.59,2.86,12.2,2.26,16.18-1.33,3.59-3.25,6.67-21.25,6.96-26.02-1.33-15.95,2.4-28.99,10.07-42.96,6.2-17.03,4.27-28.44-4.36-43.95-5.76-10.34-11.97-13.02-22.51-17.34-6.29-3.39-9.56-6.69-13.73-12.25-6.37-3.45-13.35-5.69-20.91-6.73-19.75-3.21-39.18-6.82-58.49-12.29-19.98-3.92-34.34-1.05-49.06,13.57-7.11,3.52-13.14,8.04-18.06,13.54l-1.26.38c-7.49-4.54-11.74,6.78-14.27,12.17-11.39,24.3-13.5,45.62-15.16,72.07-.13,2.08.08,4.19-.01,6.26-.55.16-1.08-2.32-1.08-2.45v-17.45c0-3.55-6.71-1.87-6.55,2.17l-3.25,11.18c-.14-1.63-.38-3.35-.8-4.92-2.14-8.04-3.65-12.57-8.47-19.61Z"/>
  <path class="cls-19" d="M299.43,364.01c1.11-5.24,14.48-11.92,18.71-14.82,4.38-3.01,7.82-7.16,12.55-9.81,21.41-11.96,41.96-2.13,63.5,2.65,11.71,2.6,45.52,6.3,53.5,12.47,2.06,1.59,4.08,5.21,6,7.08,8.61,8.37,21.81,7.72,28.83,19.69,10.01,17.07,13.18,28,6.63,47.36-2.08,6.16-5.74,11.66-7.9,17.72-4.41,12.39-.52,23.49-3.83,36.52-.63,2.46-3.8,13.34-4.74,14.89-1.22,2.02-8.13,4.65-10.55,4.75-3.81.15-5.1-1.51-8.43-2.19.25-1.89-.63-4.52.55-6,.31.1.27.29,0,.55.94.25.16.55.19.5.74-1.37,1.57-2.04,3.19-1.88,10.81,3.49,13.6-11.6,14.28-19.27-.18-8.41.26-16.76,1.33-25.05,2.97-8.98,6.48-17.77,10.54-26.38,4.42-9.79,2.4-16.89-1.94-25.6l.76-1c-.84-1.99-1.79-3.57-2.73-5.45l-1.57-.68c-2.57-5.06-4.98-9.42-9.91-12.25-9.7-3.84-18.08-8.7-24.98-16.87-2.04-1.15-3.52-2.48-4.42-3.99-.99,1.16-5.6.58-6-1.09-.81.1-1.61.18-2.42.19s-1.58,0-2.34-.15c-19.27-3.65-38.57-7.59-57.07-12.81-9.24-2.32-18.85-2.75-28.16-.3l-2.12-.56c-1.9,1.89-5.61,3.89-8.18,3.27-6.01,6.38-12.63,11.65-20.53,15.54-14.73,10.17-20.18,30.75-8.58,45.2l-.33,1.96c-1.6,3.6-2.23,8.02-4.36,11.45l-1.08-.87c.26-5.77-1.65-11.11-5.72-16.01l-.29-2.75c2.16-10.29,6.01-21.14,7.62-31.36.23-1.44-.27-3.34,0-4.63Z"/>
  <path class="cls-3" d="M571.99,887.41c1.53,1.55,4.09,1.43,5.85,2.6,2.72,1.81,3.41,9.15,4.62,12.28s4.02,5.95,3.7,9.65l-3.8-4.64c-2.43-1.97-4.03-2.45-6.93-.91-1.24.66-2.46,2.55-3.28,2.76-1.02.26-1.99-.46-3.03-.36-1.12.11-2.44,1.35-2.85,1.34-.65,0-8.41-6.37-11.03-6.81-7-1.19-5.64,11.57-8.04,15.72l-7.78-6.79c1.4-5.52,6.08-14.01,5.83-19.61-.16-3.54-9.3-11.94-7.88-15.01.31-.67,1.66-1.28,1.93-2.2,9.27,7.43,20.65,12.4,32.71,11.99Z"/>
  <path class="cls-15" d="M680.47,341.11c-.15.19-5.08,1.62-3.82,2.73.41.36,7.79,1.15,8.94,1.04,20.26-1.99,32.88-15.67,46.66-28.03,3.42-3.07,5.84-4.61,8.97-7.93,7.73-8.16,25.8-17.93,22.95,2.23-.91,6.43-6.06,12.04-4.11,18.51,6.13-2.93,7.23-9.57,9.53-15.26,5.2,1.84,3.57,7.21,4.34,11.47.99,5.44,6.13,6.94,1.39,12.24-1.13,1.27-2.66,1.89-3.81,3.27-2.59,3.09-3.32,6.26-6.8,9.56-6.03,5.7-14.18,10.18-20.41,15.57-23.98,20.78-49.74,78.47-90.73,60.12-6.61-2.96-3.37-4.59-3.67-9.93-.71-12.41-12.66-19-19.56-27.9-13.79-17.78-14.16-42.3-3.38-61.69,5.53-9.95,13.4-19.75,23.52-25,8.16-4.23,17.22-4.73,24.02,2.17s6.27,14.83,5.99,24.04c-.09,2.88-1.25,7.66-1.1,10.31.05.9,1.18,2.34,1.07,2.47Z"/>
  <g>
    <path class="cls-21" d="M525.66,365.1c29.36-17.5,57.61-38.74,87.94-55.16,14.37-7.77,28.79-11.9,44.31-16.75,10.77-1.53,20.34,4.37,25.73,13.41s3.16,21.39,2.29,31.78c12.41-2.61,23.12-7.87,32.71-16.07,9.72-8.31,22.5-24.4,34.18-28.51,7.88-2.77,14.67-.6,16.89,7.94.44,1.69.54,6.36.75,6.61.12.14,2.49.56,3.51,1.13,6.52,3.59,4.7,9.22,5.83,14.89s6.59,6.48,2.07,14.31c-1.93,3.34-4.38,4.48-6.26,6.82-1.76,2.18-2.9,5.36-5.18,7.9-5.26,5.85-12.94,9.84-19.05,14.75-23.63,19.03-37.27,53.75-67.35,65.12-9.94,3.76-27.93,3.93-36.77-2.5-5.78-4.2-2.89-8.2-3.43-13.44-1.02-9.85-13.96-18.34-19.72-26.1-2.45-3.29-4.6-7.03-6.04-10.85-5.95,5.2-10.81,11.32-16.34,16.91-23.36,23.64-47.85,53.95-74.97,72.5-1.65-1.79-1.65-5.31,0-7.09l-1.02-1.42c.34-3.53.93-7.03,1.75-10.49-8.62,4.2-8.52-4.43-2.81-8.26-1.32-1.07-6.44-5.4-5.46-7.03,1.65-2.76,8.86.02,11.32,1.42.06-.56.59-.78,1.12-.94.45-2.12.45-4.12,0-6-.04,1.48-3.19,1.37-3.91.66-2.31-2.28,1.84-7.34,3.84-8.83,1.65-2.3,1.78-18.86,1.03-20.23-2.76-2.06-4.75-3.7-6.23-6.93-3.18-6.96,1.44-5.64,5.56-3.81-2.45-2.65-3.51-5.23-3.16-7.73,2.05-.08,2.54-1.67,1.47-4.77-4.12.72-4.36-1.2-3.34-4.64-.39-.68-.81-1.37-1.27-2.06-1.75-.45-1.64-5.8,0-6.54Z"/>
    <path class="cls-15" d="M633.59,307.86c-16.76,18.77-24.75,43.25-17.48,68.09-4.44.83-5.8,5.2-8.41,7.68-.97.93-2.5,1.45-3.55,2.45-21.16,20.33-39.78,43.1-61.32,62.97l-5.17-6.26c.94-.66,9.8-7.46,8.71-8.45l-8.72,1.08c1.25-2.66.5-6.91,1.08-9.43.08-.33,4.32-2.71,5.21-3.63.44-.45,3.79-5.27,3.52-5.47l-8.17,1.08.55-12.54,6.54,3.54c-2.18-5.64-8.52-8.85-7.09-15.53l6.81,3.26c.37.12.38-.45.26-.8-1.1-3.36-7.39-7.88-8.13-10.41-.61-2.08-.51-5.11-1.13-7.32l4.36-.55c.29-.39-2.53-3.85-2.61-4.71-.09-.95,2.32-4.74,2.07-5.09l-6.54-.82c24.93-15.7,49.51-32.95,75.06-47.6,7.71-4.42,15.58-9,24.15-11.55Z"/>
    <path class="cls-15" d="M541.46,450.16c.38.51-7.28,6.49-8.17,7.08l2.15-9.03,6.02,1.95Z"/>
    <path class="cls-8" d="M531.65,429.98c.37.05,1.12-.24,1.1.28l-1.1,5.72c.05-1.99-.04-4,0-6Z"/>
  </g>
  <path class="cls-10" d="M432.99,355.84l.88,2.42c-1.15,11.46,1.8,21.76,6.7,31.8,1.23,3.06,2.23,6.23,2.63,9.51l-.95,1.53c-.33.11-.73.9-1.63.55-.63-4.28-5.99-8.38-10.36-7.63.2,1.41-.4,2.92-.19,4.28.22,1.44,1.15,2.05,1.28,3.35-1.03,1.21-13.37-14.65-14.43-15.82-4.86-5.32-11.33-10.94-17.56-14.61-2-1.18-9.9-5.98-11.67-3.7-3,3.89,3.91,9.07,3.32,9.58-1.88-.58-3.39-1.88-5.3-2.6-9.42-3.55-19.3-3.36-29.06-1.5-10.73,2.04-21.72,7.41-32.69,5.74-.89-.63-1.22-1.73-.99-3.28-1.12-5.31-1.05-9.47,2.91-13.6,5.46-5.36,9.84-11.45,13.11-18.29l1.87-1.35c20.08-5.65,32.37.87,51.24,5.19,13.57,3.1,27.32,5.25,40.89,8.44Z"/>
  <path class="cls-12" d="M438.98,356.93c-3.75,14.92,5.92,26.54,8.18,40.34,1.17.15,1.51-1.08,2.72-1.09-1.52,2.2-5.1,4.06-7.63,4.91-.62-9.62-6.88-17.48-8.56-26.6-1.14-6.2-1.37-12.41-.71-18.65,2.34.55,2.91-.03,6,1.09Z"/>
  <path class="cls-12" d="M340.86,342.21c-1.81,3.54-3.82,7.87-6.09,11.08-2.83,4.01-11.41,11.24-11.4,15.91,0,2.85,1.17,6.41.59,9.54-2.75-.42-3.05-.57-5.45-1.64-.42-3.52-.95-7.64-.55-11.18.54-4.78,9.83-14.43,13.37-18.26.62-.67,1.36-1.12,1.35-2.19,2.7-1.52,5.19-2.43,8.18-3.27Z"/>
  <g>
    <path class="cls-12" d="M388.83,272.42c1.53-.02,2.72.52,3.82.55l1.64-1.05c6.53.14,13.04.76,19.4,2.33l1.32,1.45c1.63.41,4.04.49,5.45,1.64.08.07.03,1,.55,1.34,6.42,4.25,13.64,8.89,16.99,16.28,1.26,2.79.31,3.47.69,5.29.32,1.52,2.1,2.9,2.44,5.21.53,3.69-1.01,7.41-.5,11.13-1.95-.83-4.7-2.03-6.54-2.73l-.66-1.1c.66-3.39,1.01-6.85,1.06-10.39l1.24-.5-.19-.9c-1.65-.7-3.17-1.61-4.57-2.72-9.89-16.54-27.09-19.78-45.08-18.46-1.89.14-10.48,1.38-11.29,2.77-3.45,5.92-6.7,11.95-9.78,18.07-.73,1.11-1.62,2.07-2.68,2.87.6,2.85-2.48,9.24-5.45,9.81-.26-.16-5.09-.49-6-.55,2.65-5.47,5.38-10.96,8.18-16.36,1.51-2.92,2.74-5.83,4.36-8.72.53-4.91,5.39-12.44,10.05-14.34,1.98-.8,7.23-2.13,8.48-.38,1.92-.2,5.26-.52,7.09-.55Z"/>
    <path class="cls-13" d="M203.49,421.81c-12.32-.06-31.96-5.03-37.71-17.07-8.63-18.05,10.92-34.53,19.41-48.39,3.64-5.94,7.11-16.97,13.95-19.31,9.59-3.28,22.32,3.53,33.52,2.45,5.8-.56,11.53-4.42,17.46-4.89,11.12-.88,20.59,6.03,28.61,12.8-10.44,13.82-16.37,30.57-23.55,46.24-.29.63-.42,1.33-.44,2.02l-2.04-4.22c-2.72-6.08-3.82-14.02-8.03-19.22-.79-.97-2.54-1.9-2.84-2.34-.95-1.37-.38-4.81-2.69-5.76-3.76-.17-3.57,5.76-4.08,6.4-.17.21-3.85.71-4.73.99-8.11,2.58-16.75,5.1-23,11.07-.91-1.39-1.73-4.39-3.1-4.8-1.63-.49-5.4-.52-5.62,1.81s2.54,11.11,3.1,14.34c1.5,8.68,2.61,19.13,1.81,27.91Z"/>
    <path class="cls-10" d="M435.71,301.86c-1.07,3.74.36,8.53-1.64,11.99-9.74-3.7-18.14-4.83-28.61-4.36-1.73.08-5.11,1.16-6.51,1.1-.21,0,.12-1.31-3.24-1.03-5.77.49-10.65,2.74-16.04,4.13-7.27,1.88-16.87,3.4-23.01-.39,2.35-2.85,3.78-6.51,5.45-9.81l1.21-.95c13.49-1.98,26.92-4.13,40.28-6.46,5.48-.74,11.08-1.23,16.6-.58s11.79,2.13,15.5,6.36Z"/>
    <g>
      <g>
        <path class="cls-12" d="M466.24,156.29c.2-.19.57-1.55,1.62-2.47,4.33-3.82,29.33-12.11,36.25-14.45,20.1-6.81,40.76-12.03,60.97-18.48,1.89-3.43,3.97-6.44,7.05-8.9.77-.62,2.3-.83,2.64-1.3.81-1.16,1.07-5.06,2.22-6.93,1.25-2.04,3.11-1.76,4.21-3.42,3.82-5.78,1.23-15.48,5.28-21.43.85-1.25,2.38-2.03,3.08-3.46,1.34-2.75.87-6.72,2.12-9.87,2.29-5.8,8.34-5.66,13.58-4.42,2.83.67,5.48.96,7.74,1.48,2.8.64,10.24,2.55,12.16,4.25,4.05,3.59,1.88,13.89.65,18.65-2.34,9.07-8.23,10.25-6.87,21.91.96,8.16,5.97,10.32-.87,18.87-6.38,7.98-16.9,10.91-22.48,16.5-.97.97-2.24,4.27-3.75,5.79-4.82,4.85-9.64,2.61-13.85,4.69-.68.34-.84,1.44-1.49,1.92-11.14,8.34-25.56,15.08-37.37,23.53-14.57,10.42-27.39,22.9-40.71,34.79-1.51-1.14-1.55-7.08,0-8.18.62-1.66,1.92-3.08,3.92-4.26,17.64-16.03,36.04-32.45,57.68-43.17l.36-1.5c5.87-4.14,12-7.67,18.4-10.57,6.82-.51,9.38-1.71,11.87-8.22,4.3-3.77,9.11-7.03,14.43-9.76,6.7-4.2,12.15-7.65,7.68-16.01-2.63-10.3.63-18.6,6.11-26.8.67-1.82,3.74-14.62-.68-13.15.2,9.46-6.11,11.21-8.77,1-1.92-3.34-7.59-6.25-11.3-4.54-.92,6.4-2.53,11.05-6.73,16.04-.96,4.72-1.71,9.51-2.26,14.35-.91,3.97-2.85,8.61-6.93,10.03-.88,5.56-2.04,8.24-7.55,10.03-2.27,5.07-5.64,8.39-10.12,9.95-22.89,7.03-46.17,14.19-69.18,21.37-1.65.52-3.4.62-5.11.69-.43.46-.87.9-1.35,1.28-2.04,1.6-13.25,6.04-15.87,6.32-.61.07-1.23.06-1.85.03-1.02,1.26-5.06-.41-4.91-2.18Z"/>
        <path class="cls-19" d="M471.15,158.47c.78-.12,1.37-.2,2.1.1,2.96,1.19,9.25,9,11.33,11.84,7.18,9.82,12.98,21.63,14.8,33.68l-.98,1.27c.16,2.29.23,5.94,0,8.18-1.12,10.69-18.19,3.58-20.71-3.27,1.39-.84,3.11-1.76,4.36-2.73,1.79.15,3.56,1.07,5.31,2.75,4.99,3.22,4.91-.18,4.4-4.37-.25-2.07-.91-6.24-1.38-8.1-1.01-3.94-4.41-10.49-6.6-14.06-2.47-4.03-11.88-18.33-16.11-19.17-2.8-.56-3.47,9.36-3.19,11.33l-.97,1.1c-2.04.97-3.59,2.08-5.45,3.27-.62-6.89-2.28-15.53,3.53-20.73,1.42-1.27,3.28-1.94,4.65-3.25,1.28.79,3.84,1.52,4.91,2.18Z"/>
        <path class="cls-2" d="M490.22,150.84c22.92-8.48,46.47-14.16,69.65-21.66,2.35-.76,6.67-2.06,8.58-3.41,2.35-1.66,3.37-6.01,5.68-7.95,1.55-1.3,3.67-.93,4.96-2.67,1.19-1.6,1.86-6.77,2.28-7.26.21-.24,1.26-.22,1.79-.64,6.93-5.59,4.85-16.15,7.08-22.93.91-2.76,3.85-4.54,5.07-8.02.68-1.95,1.21-8.37,2.16-8.88,4.01-2.16,10.77,1.17,12.89,4.97.89,1.6,2.52,8.96,5.27,5.69,1.82-2.16,1.56-5.51.52-7.93,1.48.82,4.78.69,5.34,2.56.69,2.28-.92,10.76-1.79,13.26-1.13,3.25-3.67,4.88-4.9,8.18-1.85,4.96-2.26,11.31-1.23,16.47,1.12,5.62,4.27,7.42-.67,12.71s-18.21,11.04-21.13,14.57c-1.16,1.4-2.41,5.51-4.38,6.95-2.44,1.79-7.6,1.26-10.64,2.84-4.64,2.41-11.93,7.28-16.75,10.23-9.5,5.57-19.28,10.66-29.34,15.26-19.86,7.42-31.52,3.59-38.26-16.73-1.5-1.97-2.23-3.85-2.18-5.62Z"/>
        <path class="cls-10" d="M560,157.93c-20.74,12.71-37.28,25.79-55.05,42.26-1.84,1.71-4.37,3.96-6.55,5.17-1.01-14.52-14.75-39.13-27.26-46.89,6.24-2.83,12.65-5.25,19.08-7.63,6.6,8.5,5.95,19.35,17.08,23.54,12.3,4.62,28.75-4.54,39.63-10.17,4.13-2.13,8.55-5.43,13.07-6.28Z"/>
        <path class="cls-13" d="M463.51,177.01c-.51-2.52.04-13.93,3.99-13.55,4.97.47,16.51,17.96,18.83,22.62,4,8.02,14.94,38.6-4.3,21.47.06-.05-.09-.71.16-.91,4.5-3.59,11.44-7.72,5.28-14.08-3.58-3.69-7.86-3.33-12.53-2.46.92-2.54,3.89-4.33,4.65-7.07,1.27-4.59-2.2-7.76-6.55-8.2-3.95-.4-6.17.58-9.54,2.18Z"/>
      </g>
      <g>
        <path class="cls-7" d="M463.51,177.01c.12-2.12,4.09-3.01,6.05-3.24,10.3-1.26,15.37,7.45,7.56,14.82,7.45-1.96,15.21,4.76,12.88,12.26-.56,1.8-5.96,6.15-7.95,6.7.49,1.78-2.94,3.82-4.36,2.73-.2.12-1.02-.03-1.59.3-6.98,4.1-7.41,12.16-10.66,18.8-1,2.06-3.34,5.96-4.64,7.9-6,8.93-14.51,10.33-22.86,15.84-8.78,5.79-13.91,14.5-17.49,24.22-1.54.59-4.89.1-5.45-1.64l-.47-2.04c5.23-16.6,17.04-27.61,32.57-34.12,4.26-2.47,9.66-6.2,9.88-11.35l-10.18-1.03c-4.39-.45-5.71-4.13-5.29-8.01,5.59-17.99-15.37-19.89-19.78-4.74-1.04,8.71-3.44,16.62-7.67,24.43-5.95,10.98-12.4,21.63-19.06,32.2-.25.4-.63.73-1.03,1.05s-.87.62-1.34.88c-.44,1.57-3.57.98-3.82-.55v-4.91c4.16-5.79,9.52-14.55,13.08-20.72,1.17-.73,1.89-2,2.18-3.82,2.71-4.87,5.57-10.44,7.51-15.66,3.77-10.17,2.38-24.37,14.64-28.97,2.46-.92,4.51-.69,6.37-1.27.89-.28,2.32-2.92,4.37-3.81,1.91-.83,4.56-.63,5.84-1.26.65-.32.84-1.4,1.5-1.92,4.11-3.23,9.35-6.98,13.75-9.81.22-2.08,3.54-4.33,5.45-3.27Z"/>
        <path class="cls-17" d="M404.1,242.98c-.54,1.84.23,4.47-2.18,3.82.71-1.24,1.49-2.58,2.18-3.82Z"/>
        <path class="cls-3" d="M392.65,272.97c7.25-12.88,16.26-24.94,22.27-38.51,1.29-2.9,3.08-6.77,3.86-9.77,1.27-4.84,1-10.01,3.4-14.59,4.36-8.33,19.76-10.34,21.1,1.05.53,4.54-2.46,10.6.85,13.87,1.7,1.68,10.63,1.67,13.64,2.17.77.13.95-.4.74.7-2.07,11.04-15.92,14.2-23.97,19.65-9.64,6.52-16.05,17.2-19.55,28.15-8.26-2.09-13.88-2.52-22.35-2.73Z"/>
        <path class="cls-3" d="M462.42,222.26c-1.99-2.2-13.14-1.6-13.93-2.71.9-7.66.97-15.73-5.69-20.73,6.58-.29,13.32.37,19.89-.01,1.93-.11,5.12-.38,6.95-.68,4.63-.77,10.6-5,14.03-.13-8.82,7.31-19.74,11.07-21.25,24.26Z"/>
        <path class="cls-3" d="M451.52,192.28l12.92-9.16c2.77-2.02,5.59-1.89,8.88-1.74,1.46,1.45-9.31,10.9-10.08,10.9h-11.72Z"/>
      </g>
      <g>
        <path class="cls-19" d="M358.85,296.41c-1.07-3.96-1.43-8.1-2.34-12.11-2.45-10.73-6.8-24.16-13.24-33.1-3.16-4.39-7.85-8.25-10.81-12.64-4.79-7.11-4.99-14.78-7.26-22.72-4.47-15.61-11.95-25.21-9.26-42.78,1.14-7.47,4.15-11.31,6.66-17.88,4.57-11.97,9.64-30.81,16.95-40.83,2.76-3.79,7.08-6.93,9.39-10.78,3.62-6.03,3.23-9.87,8.54-16.54,2.81-3.53,5.93-6.53,8.58-10.5,2.07-3.11,2.62-7.34,6.83-7.94,7.22-1.03,3.8,13.23,2.23,17-.52,1.25-2.21,3.32-2.37,4.1-.18.82.92,5.33.84,7.45-.22,5.5-3.22,12.43-7.11,16.32-1.44,1.44-5.58,3.32-5.89,3.92-.47.93-.41,2.78-.92,3.98-1.82,4.28-4.45,8.14-5.56,12.98-2.08,9.1.31,21.99-5.92,30.07-3.25,4.22-6.08,1.34-5.68,9.02.85,16.46,8.01,27.11,13.72,41.34,2.54,6.33,1.12,12.38,2.51,16.03,3.05,8.01,10.23,14.79,15.37,21.15,2.41,2.98,4.27,6.39,6.57,9.24,2.1,2.61,5.73,4.54,6.54,7.91.46-.11,1.36-1.26,1.63-1.63,1.69.26,1.61,4.5,0,4.91-.44,1.64-6.42,2.13-7.09.55-6.7-7.88-13.5-16.15-20.41-24.8-2.88-3.76-9.78-14.17-10.23-18.52.91-4.67.93-8.38-1.46-12.8-7-13.47-12.7-27.62-14.2-42.98-.35-3.62-.62-7.9,2.17-10.65,6.07-3.43,7.26-8.05,8.08-14.54.11-11.58,1.41-23.87,9.05-33.02,2.08-.82,3.24-2.49,3.47-4.99,7.84-7.73,8.9-11.14,7.75-21.77-.07-.61-7.4,8.56-7.04,9.88-2.2,7.42-6.38,13.8-12.54,19.17-7.27,13-13.04,26.82-17.33,41.46-6.89,11.5-8.73,24.33-3.52,36.87,3.95,9.85,7.6,19.84,9.21,30.4.76,3.36,2.15,6.53,4.33,9.2,13.86,13.36,20.95,30.63,24.63,49.46l-.49,2.35c.26,2.96-1.73,7.3-4.36,8.72Z"/>
        <path class="cls-13" d="M363.21,287.69c-3.2-13.75-7-28.37-15.36-39.98-3.84-5.33-10.2-10.22-12.71-16.19-2.11-5.02-2.48-10.94-3.96-16.22-4.92-17.59-14.39-28.21-7.24-47.85,1.06-2.93,2.97-5.6,4.08-8.46,4.75-12.17,10.36-33.13,18.3-42.76,2.41-2.92,5.6-5.27,7.74-8.61,2.64-4.11,3-8.54,5.42-12.57,1.89-3.15,5.56-6.56,7.81-9.64.01,1.75-.39,3.36-.26,5.17.35,5.15,1.58,5.69-.69,11.33-1.84,4.59-5.91,6.84-7.34,9.56-.7,1.32-.5,2.69-.83,3.27-.1.18-2.53,1.38-3.39,2.34-2.93,3.27-6.89,14.44-7.33,18.84-.71,7.15.43,18.3-4.51,24.39-2.3,2.84-5.87,2.84-6.47,7.7-1,8.05,3.77,25.18,6.83,32.99,2.26,5.76,9.57,17.82,9.57,23.18,0,2.2-1.2,4.51-.47,6.97.79,2.7,7.78,13.65,9.79,16.38,4.12,5.58,9.62,11.91,14.09,17.53,1.99,2.5,6.01,4.34,5.44,7.92-3.2.34-7.61.67-10.33,2.48-2.08,1.38-6.73,9.6-8.2,12.24Z"/>
      </g>
    </g>
    <path class="cls-2" d="M435.71,301.86c-16.22-10.13-34.88-3.82-52.15-1.18-7.13,1.09-14.36,1.5-21.44,2.82,3.7-7.3,7.41-14.6,11.63-21.62,2.37-2.38,12.26-3.3,15.87-3.48,14.68-.74,28.55,2.62,38.47,13.91,1.59,1.81,3.6,5.65,5.15,6.85.83.64,3.52,1.36,3.55,1.9.02.29-1.05.69-1.08.81Z"/>
  </g>
  <g>
    <path class="cls-11" d="M323.96,378.73l1.6-.9c9.88-.36,19.67-2.23,29.39-5.61,10.66-2.26,22.1-2.58,32.27,1.75-5.16-12.93,7.82-7.26,13.39-3.28,11.75,8.38,19.72,16.9,28.38,27.77-1.09-9.59,8.3-5.08,11.45-.25.39,1.36.99,2.31,1.8,2.87l.22-1.23c2.64-1.11,5.11-2.34,7.41-3.67,1.83-2.53,4.06,2.37,4.6,4.35l24.35-10.55,1.02.75c2,.27,3.8,3.7,2.73,5.45-.23.43-.48.84-.79,1.2s-.59.69-.95.88c-10.64,5.43-20.65,10.02-32.26,13.01-1.82.47-4.24,29.79-4.09,34.24,7.63,6.73,10.89,16.74,12.45,26.63l-1.07.64,1.09.63v12.76l-1.09.79c1.87.62.16,5.26-1.64,5.18.32.68.54,1.55,0,2.18l-.28,1.24c1.16.85,1.39,4.17-.27,4.76l.86,1.65c-1.69,8.09-3.84,16.05-6.47,23.9l-1.48,1.17c-.57,1.98-1.05,4.03-1.64,6-.34,1.13-3.04,7.78-2.72,8.18,2.95-3.97,9.07-1.66,8.04,2.87-.61,2.69-4.43,7.7-5.8,10.55-3.25,6.76-4.62,14.26-8.7,20.57l11.36,15.07c-.39,3.07-.81,6.19-1.09,9.27-3.4-1.26-6.68-6.22-7.09-9.81l-2.18-1.84c-11.31-14.63-22.35-29.39-33.11-44.27-3.08-4.83-13.27-22.72-11.77-27.51.13-.41,1.08-.63,1.67-.74,1.74-.33,8.8,9.09,9.8,11.11,7.93,14.65,17.6,28.27,28.48,41.21,1.09-3.68,2.36-7.31,3.82-10.88-2.28-2.3-2.91-5.45-1.89-9.47,2.81-14.25,6.55-28.47,11.23-42.64,4.42-16.29,6.49-34.07-1.69-49.55-2.07,16.07-7.31,32.26-18.18,44.71-7.15,8.19-10.96,7.78-5.81-3.01,8.26-14.07,14.98-29.03,16.58-45.56.46-14.6,2.16-28.97,5.1-43.11-1.7.42-2.89.04-3.55-1.14-2.99,2.38-8.15,4.53-10.16.11-2.42-1.46-4.49-2.92-6.5-5.05-5.98-7.76-12.56-14.88-19.73-21.35-.55,2.08-1.71,3.03-3.49,2.84-1.33,1.28-3.14,1.37-5.42.28-16.91-7.67-32.89-5.49-50.64.1-7.39,1.77-15.03,2.44-22.56,1.14,1.13,4.61.73,9.27-1.76,13.51-13.3,17.26-13.49,37.11-12.43,58.13.15,2.94,1,19.44,1.63,20.41,10.75.21,21.23,2.59,31.46,7.14l22.91,9.31c9.35,3.52,19.42,6.41,29.3,5.34,4.21-.34,5.75,3.96,3.34,7.16-2.05,2.72-11.58,6.55-14.67,7.69-8.01,2.97-15.16,5-23.37,7.18-2.19.58-16.72,3.62-18.74,3.31-1.46-.23-2.06-.63-3.13-1.53-2.88,1.23-5.86,2.15-8.96,2.55-3.19,2.57-5.76,2.78-7.69.65.17,1.68-3.66,4.17-4.91,2.73-1.64-4.1-2.79-8.43-4.36-12.54.82-1.15,1.53-.51,2.34.42,1.76,3.37,3.71,4.13,5.85,2.26l8.03-5.46c3.49-2.57,6.62-1.94,8.88,1.56l8.4-4.05c4.48-2.22,5.75.99,7.1,4.52,9.47-2.57,18.75-5.69,27.84-9.37l-7.2-1.55c-2.79-.28-4.85-1.3-6.19-3.05-3.62-.35-7.19-1.64-10.72-3.87-2.39-.5-4.27-1.39-5.63-2.67l-23.8-7.34c-6.74-.55-13.03-2.03-18.85-4.44-3.08,1.96-4.04-.13-4.76-3-2.57-18.92-3.9-39.09-1.14-58.5l1.13-1.96c.69-3.71,1.67-7.34,2.95-10.89l1.41-.56-.21-1.95c3.36-5.02,6.3-10.22,8.83-15.6l.56-4.37c-7.12-6.04-.55-18.06,6.08-9.16.99-1.03,5.29.16,5.45,1.64Z"/>
    <path class="cls-11" d="M321.78,700.4c.46.18.94.69.73.98-1.05,1.44-2.25,2.76-3.47,4.05.44,1.16.58,1.8.32,3.01-4.45,7.49-8.05,15.84-8.85,24.75,1.46.15,2.97.66,3.5,2.2.99,17.06,3.42,33.93,9.01,50.15,1.74-2.84,5.15-3.17,7.83-1.38l19.22,19.61c6.5,5.27,11.85,11.31,15.7,18.86,3.66-.3,8.17,6.82,9.38,9.94,1.47,3.81,2.1,7.87,2.5,11.92,3.36-4.63,5.63-11.43,4.13-17.47,0-8.19,8.42-4.34,9.53,1.63l2.42,1.58c-1.97-6.47,4.86-9.89,10.1-11.96,15.68-3.12,27.78-11.12,37.25-24.2-.35-10.89,6.09-6.4,9.13.16l1.02-8.46c.3-2.25.85-4.37,3.38-4.69.55-4.94,2.96-9.47,7.22-13.59l4.33-9.61c.59-1.15,1.74-1.66,2.87-2.03l.54-6.82c-.12-4.47,1.37-7.49,4.46-9.06l-1.51-5.27.84-1.03c.21-1.91,3.16-3.49,4.91-2.73l1.61.91c1.89,6.62,4.45,12.88,7.68,18.79,1.95,6.86-7.26,5.61-10.2,1.42.04,5.86-1.25,11.01-3.87,15.44-3.26.86-3.87,2.57-4.78,5.64,2.13,1.02,3.33,2.4,3.58,4.15.4,0,.81,0,1.19.09,3.65.81,11.52,13.39,13.24,17.36,1.41-1.22,2.85-2.06,4.69-1.25,5.83,3.71,11.75,7.21,17.78,10.5,4.88,5.9,9.62,11.97,14.24,18.2,1.11-2.71,2.93-6.01,6.22-4.51,10.86,6.06,21.72,13,32.03,20.57.46.34.83.79,1.2,1.26s.69,1.01.99,1.55c2.82-.21,6.75,3.02,8.18,5.45.22,2.2.24,5.06.55,7.09l-1.97-.11c-9.88-5.68-18.93-12.49-27.79-19.64-3.64-2.91-7.84-4.59-12.09-6.18-4.48,6.02-8.97,4.34-13.54-.55-3.92-4.2-6.97-8.65-10.2-13.43-.37-2.62-12.88-9.57-13.69-9.35-.14,1.8-.79,2.78-1.94,2.92-1.22-.19-2.63.2-3.97-.11-3.51-.81-5.81-6.19-7.47-9.15-2.85-4.01-5.78-8.03-8.8-12.04-6.08-7.15-8.85-8.43-8.3-3.85.55,2.69.25,4.54-.89,5.54-.07.76-1.05,4.52-1.34,5.48-.25.82-.71,1.17-1.38,1.61-1.36,2.5-2.42,5.18-3.18,8.04l4.38,3.71-.11,1.33c3.02,1.62,5.83,3.71,8.43,6.26,3.7-.13,4.23.32,6.93,2.7,2.11,1.86,17.17,19.93,17.3,21.69l-.5,1.51c.94,1.35-1.51,6.09-3.27,5.45-1.79-2.47-13.75-18.92-14.83-19.51-.96-.53-2.39,0-4.74-1.53-2.7-1.75-15.32-14.33-16.41-14.4.27,2.26-3.73,1.93-5.06.88-.95-.75-1.86-4.5-1.48-5.79-1.07-.34-1.78-1.38-2.13-3.12-1.99,2.85-4.11,5.57-6.87,7.79l-1.91.24c.8,1.6-3.52,4.93-4.91,3.82.66,1.49-1.46,3.3-2.73,2.18-.2,2.21-5.64,5.37-7.63,4.36-.16.37-.33.73-.56,1.05-1.19,1.62-11.06,4.82-13.61,4.4.32,1.67-2.26,2.29-3.27,1.09-.34,1.37-1.45,2.55-3.33,3.55,1.29.77,1.85,1.58,1.69,2.45,1.65-1.23,3.47,1.31,2.85,3.09-.34.99-4.63,2.86-5.57,2.36-1.35,1.16-5.19.52-6-1.09-3.08,1.22-4.09,3.29-5.19,6.28l-1.35.26c-2.28,4.16-4.44,8.28-7.18,12.17-1.25,1.77-5.49,7.97-7.25,8.01-2.54.06.22-20.9-1.39-22.91-.78-.13-.74.95-.92,1.52-.7,2.25-.98,10.09-5.07,8.04-1.26-.63-.82-1.76-1.09-2.47-3.52-3.18-4.64-9.43-4.36-14.18-.49-.86-.34-1.88.45-3.08-.34-3.13-1.22-6.28-2.63-9.46l-1.34-.05-4.43-5.22.32-1.28-1.57-.09c-2.13-1.79-12.14-11.16-12.51-12.86-.09-.4-.12-.81-.09-1.23l-1.42-.22-1.93-3.96c-.96-.56-1.66-1.17-2.1-1.82l-.72.41c-.59-2.46-.53-1.15.18,3.95,1.87.78,1.66,8.65.79,9.98-.71,1.09-1.23,1.74-2.42.92-5.12-3.13-8.72-10.81-10.9-16.36-1.94-.23-3.5-5.15-2.18-6.54-.42-.38-.83-.78-1.17-1.22s-.66-.86-.8-1.34c-3.28-10.99-5.3-22.26-7.27-33.54l.52-3.16c-.79-.99-1.77-1.67-2.96-2.03l-.31-1.24c-.75-3.53-.77-7.82-.55-11.45.31-4.96,1.57-9.44,2.73-14.18.79-1.43,1.15-2.88,1.09-4.36,1.21-3.94,3.05-9.76,5.45-13.08.89-2.32,2.9-6.1,5.45-6,1.6.06,3.54,3.36,3.27,4.91Z"/>
    <path class="cls-19" d="M426.99,851.42c2.33,3.05,3.53,6.82,3.62,11.29,10.19-3.94,13.51,7.49,1.57,7.03-.55.8,3.04,17.48,3.63,18.98.52,1.34,9.17-26.55,8.72-27.26l.98-1.31c1.66.54,3.8,1.35,5.45,1.64-1.76,10.76-5.05,22.68-9.72,32.53-1.17,2.48-5.17,11.29-8.27,9.74-2.86-1.43-3.35-12.25-3.98-15.65-2.59-13.82-5.71-27.57-8.55-41.33,1.9,1.49,4.45,3.1,6.54,4.36Z"/>
    <path class="cls-19" d="M525.66,860.69c1.11,1.42,2.11,2.99,3.27,4.36l.25.72c-4.44,3.24-8.87,6.66-13.3,10.24-9.26,9.07,9.94,7.3,14.72,6.16l1.06.87c.06.25,2.36,3.88,2.73,4.36-6.54,3.45-15.96,3.67-22.9,1.37-.73-.24-1.4-1.13-1.98-1.22-.86-.13-1.6.71-2.9.14-1.37-.6-2.89-3.87-3.83-5.2-.18-1.84,1.23-5.93,3.27-6,1.24-4.08,14.36-16.07,18.41-16,.41,0,.81.09,1.21.19Z"/>
    <path class="cls-19" d="M504.4,830.71c1.14,1.43,2.18,2.9,3.27,4.36l-.7,1.66c-1.89.94-9.26,6.86-8.99,8.32.1.54,9.1,1.08,9.47.09-1.01-2.54-2.08-9.08,1.86-7.88,2.54,3.51,4.77,7.69,7.09,10.9.72,1.59-3.17,5.05-4.36,3.27-5.1,1.82-16.49,2.77-20.47-1.61-1.2-1.33-1.5-3.11-2.43-4.39,1.18-1.51,2.11-4.04,3.27-5.45l-.22-1.41c3.13-3.37,6.88-6.15,10.88-8.39l1.33.53Z"/>
    <path class="cls-11" d="M516.39,848.15c1.82,2.53,3.63,5.12,5.45,7.63l-.5,1.73c-2.48,1.38-18.08,10.51-16.86,13.56,2.34,2.21,2.86,4.02,1.55,5.43-.98,1.39-1.74,4.67-3.27,6-.38-.54-.41-1.45-1.11-1.88-1.66-1.03-2.93-.09-3.92-3.18-2.15-6.67,3.18-14.26,8.05-18.37,1.15-.97,6.89-4.53,7.11-4.91.35-.58-1.02-1.9-.86-2.74,1.92-.68,2.76-2.24,4.36-3.27Z"/>
    <path class="cls-11" d="M525.66,365.1v6.54c.12.43.29,1.07.01,1.26-2.47,1.75-12.88,8.37-15.12,9.08l-1.25-.52c-.48-2.43-1.1-3.93-1.64-6,5.45-3.38,11.01-6.65,16.53-9.93.49-.29,1.18-.26,1.46-.43Z"/>
    <g>
      <path class="cls-21" d="M179.51,516.13c-2.02-4.73-4.51-9.33-7.07-13.77-3.66-6.33-7.88-11.95-10.21-19.37-4.74-15.07-3.68-34.26,1.92-49.01,1.24-3.26,3.69-9,8.14-6.86,2.19,1.05,1.02,8.17,1.2,10.8.61,8.77,2.33,17.5,4.94,25.87l14.71-16.9c.39,2.92.63,6.31,1.09,9.27-.09.72-.18,1.29-.59,1.87-3.46,4.95-9,10.55-14.18,13.62.21,1.45.46,4.71-1.82,4.29-1.92-.36-10.51-19.8-9.93-23.45-3.91,17.03,3.6,34.03,11.8,48.71,13.15,19.97,23.16,41.05,30.01,63.24-.36,1.57-1.64,1.28-3.83-.87-1.95-1.2-4.75-4.07-6.54-4.91l-1.49-1.23-4.22-13.47c-1.58-1.81-4.61-7.98-5.13-10.29l.49-1.18c-.13-.93-.54-1.74-.99-2.55-1.67-3.04-6.22-11.86-8.28-13.81Z"/>
      <path class="cls-20" d="M205.67,563.56c.71.44,1.89.47,2.46,1.63.42.08.33-.5.28-.82-.95-6.25-7.73-21.36-10.5-27.66-10.92-24.85-33.33-49.06-32.36-76.92.16-4.69,1.79-9.3,1.98-13.99l2.77,14.29c1.71,1.57,2.06,4.54,3.13,6.8,1.38,2.9,3.49,5.36,4.46,8.35,1.31-.56.05-3.22.65-4.25.16-.28,4.38-2.8,5.34-3.65,3.96-3.48,6.22-8.21,10.35-11.18,4.32,28.04,12.11,62.5,22.8,88.69,1.16,2.84,4.5,8.18,5.01,10.8.18.92-.06.86-.84.85-2.51-.04-5.16-2.12-4.51,2.29.82,5.54,8.51,15.49,10.78,20.86.13.32.1.92-.26.81-3.79-3.39-7.74-4.74-12.81-3.82.03-5.93-5.35-9.05-8.73-13.08Z"/>
    </g>
    <path class="cls-20" d="M207.31,434.35c.99.83,1.99,1.71,2.65,2.83,8.26,13.99,15.52,25.6,26.11,38.11,8.45,9.98,18.04,20.88,28.41,28.05-1.58-7.81-3.55-15.39-5.91-22.73-.53-1.79-.18-2.85,1.06-3.19.9-5.2,1.53-9.95,1.16-15.47l3.74-16.7c1.12,9.35.79,21.04,4.98,29.64,1,2.05,2.9,3.69,3.61,5.66,1.28,3.56,1.93,8.88,3.02,12.79,4.61,16.46,11.49,36.53,12.38,53.31-2.59-1.34-5.12-3.57-7.35-5.47-31.57-26.91-57.11-62.11-78.24-97.58,1.21-3.08,3.3-6.15,4.36-9.27Z"/>
    <g>
      <path class="cls-14" d="M266.73,642.61c-9.05-11.19-17.76-21.76-24.27-34.88-.77-1.56-4.9-9.93-4.05-10.89s5.28.3,2.96-5.47c-1.64-4.09-7.12-11.02-9.62-15.45-.74-1.3-5.39-9.35-5.35-9.91s4.27-1.05,3.7-5.3c-15.9-34.47-24.35-71.99-29.87-109.46l22.45,33.43c15.75,21.2,33.47,42.33,53.32,59.8l.92,1.58c-3,32.01-6.01,64-9.04,95.99l-1.15.57Z"/>
      <path class="cls-6" d="M289.08,554.83c.09,22.88-4.3,46.51-9.53,68.7-3.47,14.72-8.21,29.18-10.64,44.15-3.74-4.11-6.41-9.05-9.58-13.6-.52-.75-1.45-.93-1.88-1.53-.74-1.03-2.93-4.81-3.25-5.87-.23-.76.02-.96.77-.78,2.87.7,7.96,3.27,10.78,2.02,3.35-1.49,2.84-3,.98-5.32l9.27-98.14c4.13,3.63,8.86,6.82,13.08,10.36Z"/>
    </g>
    <path class="cls-20" d="M217.67,607.17c4.96,1.32,8.43.38,12.49-2.5.83-.59,2.86-3.51,3.59-2.41,4.51,10.71,10.55,20.72,17.27,30.16.97,1.36,5.02,5.88,5.35,6.65.44,1.04-.56.86-1.25.71-2.57-.58-9.96-5.54-9.61-.25.46,6.87,9.92,20.37,14.23,26.15,2.42,3.24,4.85,6.62,8.08,9.1-.37,3-.39,5.99-.54,9.01-.03.62.35,1.5-.54,1.35-1.16-4.2-6.45-6.36-9.63-9.46-3.44-3.35-9.69-11.13-11.5-15.49-3.4-8.19-1.19-17.32-4.95-25.03-3.42-7.02-11.14-10.71-15.92-16.4-2.77-3.3-4.95-7.82-7.07-11.58Z"/>
    <g>
      <path class="cls-11" d="M198.59,437.07c1.56-.72,3.98,5.9,3.66,6.2-.07.07-.67-.64.7.34,1.2,1.01,2.44,2.05,3.3,3.37,23.33,35.93,47.26,72.02,81.5,97.96l.78,1.71c1.74,1.06,2.32,7.05.55,8.18-4.75-1.68-10.72-5.94-13.08-10.36-.75-.28-1.49-.59-2.18-.97s-1.38-.75-1.93-1.26c-27.89-25.31-50.18-55.93-69.84-86.36,5.48,35.82,13.93,71.44,29.09,104.49.54,2.83-.96,4.9-3.37,6.09,3.55,7.08,7.98,13.77,12.5,20.49,2.29,3.66,5.39,9.38-.84,10.67,5.09,15.34,15.98,29.29,26.41,42.13l.9,2.85c1.63-.43,2.66,1.5,2.55,2.92-.44,5.89-10.3,3.31-13.64,1.74,4.13,6.16,8.45,12.33,12.94,18.52l.33,1.89c1.3,2.11.75,5.44-1.09,7.09l-1.71.02c-6.25-6.51-12.04-14.39-16.48-22.26s-10.96-21.68,4.87-14.17c-8.81-10.23-15.85-22.52-21.52-34.97-3.42,3.9-10.88,7.83-15.32,3.77-3.14,1.73-7.03-2.82-8.58-5.56-.03-.05.81.45-.14.66l.16,1.19c-2.16.85-4.16,1.95-5.98,3.27,8.57,8.05,16.01,18.45,21.92,28.75,4.6,8.02,6.22,13.06-5.2,15.25,7.71,11.3,16.73,20.99,27.06,29.06,1.1,1.28.86,2.63-.03,3.98l19.61,9.57.79,1.6c1.71.76,3,5.72,1.64,7.09-8.01-4.17-17.26-7.38-25.09-11.71-2.55-1.41-8.81-5.22-9.55-7.9-.36-1.3-.04-2.69-.54-3.83s-5.28-5.11-6.54-6.54c-9.44-10.72-14.55-20.6-25.88-29.73-5.75-4.63-10.19-4.05-16.5-6.39-2.97-1.1-5.83-3.1-8.76-4.33-2.42-1.02-8.94-3.84-11.11-4.14-.5-.07-7.31,2.43-9.68,2.61-18.53,1.47-32.34-4.82-34.02-24.9-.54-6.46.52-6.93-1.97-13.3-3.41-8.7-6.52-17.54-10.54-25.99-2.73-5.74-6.25-11.06-8.7-16.94-.37-3.34,2.64-2.37,3.16-2.87.07-.07-.54-1.21-.56-1.89-.24-6.51.73-15.09,2.72-21.3.74-2.31,3.66-7.1,3.84-8.71.17-1.52-2.67-.43-3.58-1.9-1.54-2.49,5.5-7.01,7.22-8.08,3.81-2.35,8.35-4.44,12.71-5.56-.9-3.41-2.95-4.34.82-7.08,3.29-2.39,5.63,1.17,8.79,2.66,7.06,3.32,7.34,2.64,14.59,2.85,4.49.13,8.88,1.59,12.07,4.83,1.17,1.19,4.39,6.75,4.73,6.99.39.28,3.71.86,5.17,1.64,1.18.63,6.93,4.75,7.79,5.56.39-.3,1.04-.55,1.26-.24,1.29,1.78,9.37,14.97,8.95,15.78-.2.39-.56.63-.95.82l-1.65-.26c-1.26-1.22-14.36-13.32-14.96-12.54-.51.66,2.85,14.15,3.43,16.33,2.15,8.09,4.6,16.47,10.84,22.34,2.91-3.42,10.2-3.33,12.7.3,1.76-1.17,6.79,3.09,6.54,4.91,1.06,1.08,2.03,1.58,2.92,1.51,2.83,1.87,6.37,6.73,6.82,10.18,3.49-.12,6.84.37,9.81,2.32l-6.83-11.58c-2.38-4.1-5.99-12.93,2.28-10.62-13.36-29.12-22.26-63.23-26.98-95.64-.08-.57,0-1.16.09-1.76s.26-1.21.45-1.8c-2.17-1.98-2.26-6.57-1.09-9.27-.53-3.99-.9-8.03-1.41-12.02,2.19-1.22,5.69-.06,6.86,2.2Z"/>
      <path class="cls-14" d="M127.18,589.18c9.4,9.41,25.13,5.81,20.72-9.27,1.36,1.32,1.63,2.74,3.25,4.1,4,3.35,13.56,4.64,18.44,3.16,5.32-1.61,8.24-6.18,11.82-9.98,2.92,4.75,4.2,8.93,9.71,11.54,6.09,2.88,11.5,1.6,17.09-1.64,3.75-2.18,5.92-5.77,11.11-4.2,4.18,1.26,11.55,11.34,9.28,15.3-2.45,4.28-8.68,4.35-12.06,1.1-1.47-1.42-2-4.79-3.38-5.39-3.3-1.41-4.69,3.17-8.04,2.91-.21-.2.05-4.41-1.36-3.81-1.74.73-5.51,9.44-6.93,11.61-2.29,3.5-6.73,6.16-6.44,10.74,2.21.22,3.76-.02,5.64-1.18.84-.52,1.95-2.19,2.74-2.05,2.43.42,19.98,26.44,21.56,30.71-7.37,5.26-11.13-2.24-16.36-5.89-5.92-4.14-9.32-3.72-15.52-5.75-5.31-1.74-10.91-5.52-16.59-7.42-.65-.22-2.12-.17-2.19-.25-.42-.42.74-3.1.55-3.27-5.06-1.11-8.55,2.01-13.05,3.02-6.57,1.47-18.24.75-23.47-3.84-2.62-2.3-6.54-8.55-6.54-12v-18.26Z"/>
      <path class="cls-14" d="M171.88,547.75l-1,.94c-9.16-1.09-21.31-2.29-25.56,7.79-.78.99-1.75,1.16-2.77.36-5.85-4.8-7.59-5.23-14.5-2.68-5.19,1.92-9.26,4.21-13.48,8.02l-1.55-.25c-.85-1.71-5.46-10.24-5.43-11.18.04-1.13,2.67-3.96,2.74-6.56.06-2.27-1.42-2.32-1.7-4.3-1.24-8.77,3.83-16.95,6.58-24.56.53-1.46,1.19-5.96,1.35-6.26.8-1.43,9.44-4.85,11.43-5.49,1.77-.57,5.61-1.8,7.25-2.07s6.62,1.95,9.14,2.09c2.11.11,3.66-.58,5.41-.56,14.58.19,16,22.84,18.66,33.18,1,3.91,2.12,7.75,3.44,11.55Z"/>
      <path class="cls-6" d="M208.94,602.27c2.23,5.79,4.13,10.86,7.73,15.98,5.81,8.25,17.7,14.09,19.47,24.15,1.57,8.93.25,15.83,5.52,24.35,6.03,9.75,13.3,14.04,21.44,21.08.53.46.22,1.28.46,1.52.67.7,2.79.45,3.7.15.15,1.75-.2,3.74,0,5.45l-22.35-10.91c.77-.96,2.26-1.6,1.39-3.26-.42-.79-8.22-6.55-9.85-8.18-6.7-6.72-12.07-14.92-18.25-22.09-.51-1.17,2.21-.85,3.17-1.18,3.26-1.14,6.48-1.8,6.07-5.83-.53-5.21-15.27-25.57-19.32-30.33-1.12-1.32-5.64-5.08-6.04-5.99-.86-2,5.84-4.06,6.85-4.91Z"/>
      <path class="cls-6" d="M171.88,547.75l5.99,11.45c-5.26-3.17-13.86-6.32-19.75-3.68-3.67,1.65-7.46,7.95-8.43,11.74-.56,2.21-.3,4.6-.68,6.29-.16.71-2.24,1.24-3.03.38-.65-.7-.99-2.78-1.6-3.86-1.3-2.31-4.96-8.8-7.35-9.54-5.53-1.73-17.29,4.82-19.66,10.11l-4.35-8.72c2.91-1.92,5.62-4.67,8.7-6.29,2.38-1.25,11.36-4.82,13.61-4.32s6.61,3.58,8.49,5.15c1.73-1.47,2.21-3.88,3.82-5.44,5.33-5.16,17.49-4.42,24.25-3.28Z"/>
      <path class="cls-6" d="M188.77,532.48c1.87,2.32,2.98,6.85,4.21,9.67.32.73,1.12.67,1.4,1.36,1.87,4.61,3.12,10.35,4.75,15.14-2.5-1.17-7.08-2.28-9.67-1.22-2.9,1.18-1.64,4.38-5.58-.15-8.88-10.23-10.4-27.93-13.63-40.61,5.5,4.79,14.02,10.22,18.53,15.81Z"/>
      <path class="cls-14" d="M160.27,560.95c2.99-.88,11.22,1.58,13.76,3.46,5.69,4.21.5,15.34-5.4,16.89-2.53.66-12.75-.22-13.54-2.85-1.08-3.6.98-16.26,5.19-17.5Z"/>
      <path class="cls-14" d="M208.4,579.91c-2.41.42-4.27,2.51-6.72,3.38-8.01,2.86-13.99-1.73-13.45-10.18.17-2.61,2.04-10.13,5.16-10.14,2.57,0,13.5,8.64,14.22,10.92.61,1.96-.26,4.12.79,6.02Z"/>
      <path class="cls-14" d="M132.5,566.38c.5-.08.87-.17,1.38-.02,1.6.46,5.69,8.61,6.4,10.54,3.14,8.47,3.03,16.6-7.37,8.46-1.72-1.35-9.59-9.68-10-11.31-.7-2.82,7.18-7.28,9.58-7.67Z"/>
    </g>
    <path class="cls-15" d="M259.64,477.42c-.68,3.94,1.42,5.82,2.05,8.58,1.56,6.78,2.33,13.77,5.03,20.31l-8.43-6.01c-20.06-19.31-38.61-40.78-50.98-65.95,4.33-12.71,2.99-27.29,1.1-40.34,5.67,4.95,11.99,9.3,17.7,14.19,11.81,10.14,22.39,20.44,26.72,35.97,2.75,9.85,2.08,20.54,3.12,30.68.52,1.82,1.69,2.9,3.7,2.57Z"/>
    <path class="cls-13" d="M298.89,419.62c0,6.68-1.35,13.22-1.66,19.88-.47,10.24.73,19.42,1.65,29.47.24,2.59.04,11.41,1.14,13.03,1.37,2.01,2.54-.21,3.81.03,1.14.21,3.6,1.65,5.51,2.11,5.03,1.19,10.24,1.56,15.28,2.71,7.56,1.73,14.7,4.76,21.69,8.02l-1.6.97c-9.31.57-18.49,2.57-27.54,6.02-3.74-1.37-7.5-3.07-8.73-7.11-7.04-4.32-10.82-11.03-12.64-19.2-1.79-11.3-4.94-22.13-9.46-32.47-.21-13.9,2.59-29.45,5.45-43.07,2.38,4.7,6.5,9.06,7.08,14.45.17,1.61,0,3.51,0,5.18Z"/>
    <path class="cls-13" d="M362.67,501.41c5.35,2.05,11.29,3.11,16.9,4.09-9.7,5.11-20.6,7.57-31.02,10.9-2.64.51-1.34-4.86-4.7-5.19-2.1-.21-9.1,4.91-11.93,4.94-.31,0-1.07-3.94-4.82-3.21-2.69.53-10.91,7.96-13.81,8.11-1.96.11-3.55-4.11-5.68-4.92-1.59-4.17-3.28-8.37-4.91-12.54l1.67-.23c5.02,3.32,10.85,3.89,16.53,2.06,5.59-2.21,11.29-3.9,17.12-5.06l.93,1.05.62-1.09h9.5l.78,1.09.89-.81c3.91.65,7.89.92,11.92.81Z"/>
    <path class="cls-19" d="M346.31,494.86c5.96.63,11,4.49,16.35,6.54-3.42,1.82-7.45.77-11.2.57-.71-.04-1.42-.57-1.61-.57h-10.9c-5.41,0-13.98,4.27-19.55,5.53-6.46,1.45-11.17.32-16.7-3.35-8.55-21.92-15.99-35.72-16.35-60.52,10.18,12.08,6.98,34.98,17.17,46.35,1.68,1.88,5.04,3.59,6,4.91.65.9.62,2.07,1.4,2.96.4.46,5.75,3.49,6.21,3.52,9.4-2.63,19.17-7,29.19-5.95Z"/>
    <path class="cls-6" d="M341.95,559.74c-5.17,3.42-10.67,8.02-15.26,11.99-.28.08-.57.15-.86.16-1.23.04-6.09-7.68-6.77-9.42-1.1-8.64-2.71-17.1-4.36-25.62l-2.18-7.09c-.12-.29-.36-.63-.55-1.09,1.77-.65,3.2-1.98,4.91-2.73l2.43,1.63c6.46,10.37,13.66,20.19,21.58,29.46l1.07,2.71Z"/>
    <path class="cls-13" d="M236.74,408.72c-6.6-6.23-14.91-11.85-21.8-17.99,6.25-4.95,8.05-3.69,12.82,1.63,4.18,4.66,6.91,10.49,8.99,16.36Z"/>
    <path class="cls-6" d="M318.51,695.5c-1.42,2.16-4.28,4.37-5.45,6l3.27-19.63c.35,4.1,1.85,7.98,3.15,11.83.03.72-.61,1.25-.97,1.8Z"/>
    <path class="cls-24" d="M326.69,571.74c-.81.7-1.71,2.19-2.7,3.04s-2.44.97-3.29,2.42c-.34-4.94-1.01-9.82-1.64-14.72,3.26,2.4,4.83,6.44,7.63,9.27Z"/>
    <path class="cls-16" d="M314.7,536.84l-2.18-7.09c1.46,3.53,1.42,3.17,2.18,7.09Z"/>
    <g>
      <path class="cls-21" d="M299.43,364.01c1.55.67,1.28,4.42.87,5.99-2.91,9.13-5.22,18.41-6.91,27.85l-1.59,2.14.53,2.79c-2.54,12.41-4.69,24.97-4.9,37.66l-1.09,2.61,1.2,3.59c1.69,18.83,6.79,36.95,15.32,54.36l-.16,2.57c3.06,3.48,4.82,7.91,4.91,12.54,2.56,3.43,4.88,8.3,4.36,12.54,1.42-.36,1.58.09.55,1.09l2.18,7.09c2.98,6.39,4.05,14.37,4.9,21.49.08.66.01,1.35-.08,2.04s-.26,1.4-.46,2.09c2.24,4.22,3.05,10.17,1.64,14.72,2.36,2.21,1.4,6.36.55,9.27.3.55.58,1.11.78,1.69s.39,1.15.41,1.72c.65,20.18-.31,40.11-2.6,59.95l-.31,10.43-1.01,1.99c.18,2.32-.25,18.55-1.03,19.11-.35.25-.75.4-1.15.52.12,6.48-.21,13.84-3.27,19.63l.4,1.36c-2.08,3.45-3.32,7.32-4.53,11.14l-1.32.58c.06,1.49-.3,2.94-1.09,4.36.6,2.41.34,5.07-.78,8-.07,2.51-.72,4.57-1.95,6.18-10.23,2.78-18.35-2.43-24.81-9.81-5.18-5.91-8.21-13.65-10.08-21.27-.53-2.16-1.38-4.93-1.64-7.09-1.12-.84-1.48-2.15-1.06-3.93-2.47.1-3.74-.7-3.82-2.42l-13.13-10.97c-12.06-11.84-13.04-20.68-14.54-36.55-3.6-6.96-8.78-13.03-15.56-18.2-3.64-4.09-9.88-13.46-10.66-18.74-.1-.66.15-1.3.44-1.89.14-.12-.3-1.14.27-1.09,2.4,2.56,4.93,5.06,8.45,6l1.92,1.21c2.48,4.67,5.04,9.41,9.13,12.85,11.89,7.94,16.28,17.45,16.16,31.61,1.67,12.52,11.96,21.35,21.14,28.77-.03-2.79.57-5.07,1.8-6.84.28-2.32.71-4.77,1.09-7.09-.65-2.85-.46-5.79.57-8.82l9.01-35.59c5.82-21.43,7.96-42.64,9.48-64.65.09-1.33.6-2.59,1.12-3.8,0-2.32-.41-5.64-.55-8.18-1.42-3.56-2.25-7.45-2.51-11.68-4.46-18.62-9.27-36.98-14.41-55.07-5.2-7.81-7.73-16.92-7.59-27.33-1.72,7.55-2.73,15.35-3.03,23.39l-1.35,1.45c-1.48,2.47-4.29-.03-4.76-2.35l-1.14-18.5c-.63-16.97-9.22-29.9-21.21-41.19-3.2-3.01-21.21-18.9-22.67-18.72,1.28,6.7,2.83,32.77-1.55,36.96-.29.28-.64.51-1,.72.6,2.99-1.81,7.87-4.36,9.27-1.47,1.03-.81.39-1.4-.48-1.54-2.27-1.95-4.1-2.96-6.06,1.94-2.77,2.44-6.09,3.27-9.27-1.4-1.15.07-5.4,1.64-6l-.94-2.04c.66-12.72-1.52-25.33-4.73-37.3-2.38-8.79,11.11-7.65,9.49.08l1.4.13c1.69,2.61,3.97,4.67,6.32,6.66l-.08,1.38,2.54.76c6.68,4.85,14.38,10.75,19.27,17.23l1.46-.11c4.27,4.21,8.39,8.64,11.98,13.44l-.35,1.39,1.66.52c3.93,5.68,6.22,12.16,7.86,18.82.85-3.56,2.08-6.82,3.7-9.79,2.14-2.28,8.29-1.63,5.86,1.62.44.03,1.02.19,1.02.49-.06,5.36-.15,11.27-.47,16.6,0,.13-.24.25-.54.36.86-.56.83,2.28.81,2.14-.31-1.51-.31-3.17-.28-4.71.41-20.39,2.29-39.93,8.91-59.38,1.85-5.44,8.41-23.39,13.84-26.95,2.18-1.43,6.87-2.37,7.25.85Z"/>
      <path class="cls-20" d="M312.52,564.1c4.76,41.23,2.49,105.11-8.22,145.25-1.55,5.83-4.7,10.91-3.77,17.22-15.97.88-25.61-19.75-26.71-33.26l.95-7.65c7.64-22.69,16.31-44.9,26.03-66.62,6.06-15.75,12.2-33.44,9.32-50.1-.07-1.75.05-5.43,2.4-4.84Z"/>
      <path class="cls-15" d="M312.52,564.1c-2.57,3.27-.67,6.82-.55,10.09.93,25.53-13.82,52.87-23.14,76.06-5.67,14.09-11.33,28.28-15.01,43.05-2-24.45,9.43-54.29,14.55-78.4,1.89-8.9,3.34-17.79,4.53-26.82,12.36-39.04-.02-78.97-13.12-115.9-.52-2.57-1.37-8.35,1.67-8.95,2.49,15.11,9.71,28.82,15.13,42.93,7.82,20.38,13.4,35.89,15.94,57.93Z"/>
      <path class="cls-20" d="M281.44,463.24c-.42,1.12-.9,2.41-1.03,3.6-.67,6.41,5.06,18.14,7.17,24.88,9.44,30.11,15.61,56.41,8.31,88.2-.59,2.57-1.12,6.31-3,8.17,2.59-19.67,4.69-44.77-1.25-63.9-2.01-6.49-5.69-12.43-7.9-18.82-13.13-37.96-12.36-72.24.96-110.02l2.73-6.26c-1.37,7.8-3.42,15.52-4.73,23.34-2.81,16.75-4.05,33.93-1.26,50.8Z"/>
      <path class="cls-16" d="M306.52,718.94c.39-1.58.58-2.7,1.09-4.36,1.13,1.14-.38,3.19-1.09,4.36Z"/>
    </g>
    <path class="cls-6" d="M357.76,585.37l1.92.74c11.1,15.01,24.64,30.09,44.42,31.73,9.71.43,19.09,2.02,28.15,4.77.08-6.74,1.55-27.54,5.64-31.95.32-.35.7-.64,1.1-.92,2.3,3.29,4.49,6.75,7.09,9.81-.31,3.33-1.09,8.16-1.09,11.18v25.08c0,1.07,1.24,3.74,1.09,5.18l-1.27.64c-8.08-3.15-16.57-5.68-25.34-6.11l-.98-.65c1.31-3.17.83-5.08-1.45-5.72-10.58,3.28-21.67,5.11-32.97,6.73-13.22-9.06-24.67-20.84-35.36-32.55-1.19-.58-1.8-1.29-1.84-2.14,2.98-5.79,7.45-10.39,10.9-15.81Z"/>
    <path class="cls-11" d="M346.86,601.18c2.58.37,3.39,2.59,4.89,4.1,10.3,10.42,20.48,21.19,32.55,29.59,6.44-1.67,13.3-1.93,19.9-3.34,2.39-.51,11.95-3.69,13.17-3.49,2.85.46,4.23,4.53,1.45,6.38,3.8-.04,7.63.65,11.35,1.47,4.5.99,11.76,3.2,15.91,5.08.72.32,3.04,2.03,4.36,2.73,4.57,2.41,9.97,5.37,13.88,8.74,2.92,2.51,5.85,7.47,9.06,8.93,3.67,1.66,16.08,4.13,20.64,4.99,1.1.21,2.17.36,3.29.25.3,1.75-4.35,6-6,4.91l-3.34.59-13.61-3.28c-1.42,4.3-3.72,2.36-4.25-1.3l-5.01-1.24c1.92,3.54,3.83,7.31,3.43,11.48l-1.2.84c-2.72,1.88-6.44-2.63-8.12-4.87l-5.98-10.5c-4.79-4.63-5.35-8.16-1.68-10.61-10.2-7.35-21.99-10.01-34.13-11.95l-3.38-1.58-6.67,5.4c-5.21,3.48-10.25.3-5.68-5.22-6.9,1.55-13.66,2.19-20.31,1.94-5.01-1.78-23.05-18.81-25.6-21.94-.83-1.02-1.65-2.05-1.83-3.39-4.04-1.7-7.69-5.73-9.27-9.81.52-1.49,1.44-3.48,2.18-4.91Z"/>
    <path class="cls-13" d="M534.38,871.05c-4.92,4.65-4.04,4.9-2.36,10.73.14.5-.39,1.17-.37,1.26-3.92,1.03-18.73,2.88-19.54-2.58-.69-4.65,13.31-12.91,16.81-15.41,1.6,1.9,3.7,4.28,5.45,6Z"/>
    <path class="cls-14" d="M525.66,860.69c-7.59,3.89-13.65,8.83-18.74,15.63-.19.25-.85.13-.89.19.4-3.63-4.19-3.98-2.21-7.39.47-.8,4.55-4.6,5.52-5.38,3.85-3.07,8.63-4.91,12.49-7.95,1.18,1.63,2.57,3.31,3.82,4.91Z"/>
    <path class="cls-13" d="M509.3,837.25c-3.69,1.47-.28,8.33-.55,8.72-.72,1.03-11.22,1.39-12.52-.81,2.95-4.17,6.96-7.66,11.43-10.09.55.73,1.1,1.44,1.64,2.18Z"/>
    <path class="cls-6" d="M525.66,371.65l1.52.09c1.65,2.19.4,3.08.11,5.35.81.73,3.67-.13,3.81,0,.24.23.72,5.6,1.09,6.54h-2.72c-.18,3.72,3.63,4.58,3.83,8.45.1,1.95-1.83-.16-2.73-.55-.62-.27-4.14-1.53-4.37-1.35.63,2.2.98,4.21,2.27,6.17,1.2,1.82,4.59,3.91,5.08,4.73.54.89.45,16.59.13,18.66-.7,4.52-6.21,4.77-5.31,10.23,1.06.1,2.24-.13,3.27,0,.48,1.8.48,3.8,0,6-.02.81.27,2.14-.27,2.72-3.3-2.13-7.22-3.5-11.18-3.26-1.06.94,4.93,6.34,5.99,6.82.22.87-2.97,2.44-3.69,3.94s-.75,2.96-.67,4.51c2.85.58,4.59-.89,7.09-1.63-.9,4.89-1.99,8.59-2.18,13.63l-13.08,8.18c3.12-10.38,5.12-15.62,3.74-26.91-.49-3.97-2.28-9.33-2.12-13.13.22-5.47,4.63-12.09,5.32-18.17.65-5.76.33-10.11-2.48-15.21-3.7-6.72-7.14-7.52-8.81-15.99l16.35-9.81Z"/>
    <path class="cls-14" d="M316.88,525.94c1.92-.84.6.34,1.44.56,2.24.57,3.9-1.57,5.88-2.23,1.44-.48,2.8-.39,4.14-.76s4.32-1.81,5.27-1.83c1.12-.02,1.28,1.51,3.08,1.51,2.68,0,9.05-1.58,12.14-2.09,12.69-2.09,25.24-6,36.92-11.59,3.36-1.61,10.03-3.92,6.93-8.83-.81-1.28-6.51-.26-8.49-.37-24.76-1.35-48.11-20.35-75.31-22.32-1.34-.1-2.23.24-3.46.52-.7-4.76-.74-9.6-1.15-14.39-1.58-18.53-2.78-39.12,5.96-56.3,3.25-6.4,8.52-10.71,8.29-18.47-.06-1.86-.93-3.73-.56-5.7,20.09,4.85,37.48-8.43,57.91-5.86,3.19.4,19.76,6.53,20.58,5.85l-.54-1.63c3.32,1.05,3.72.82,3.82-2.73l1.28.08c9.12,6.2,14.54,16.35,22.35,23.72,1.41,1.33,3.33,2.21,4.66,3.24.74.57.98,1.77,1.69,2.15,1.37.75,7.73-1.23,7.64-3.57,1.88.38.96,2.11,1.08,2.18.51.31,3.4-.21,4.36,0-5.73,16.28-3.74,33.96-6.71,50.8-1.45,8.19-4.46,17.24-7.91,24.8s-8.51,13.75-10.46,21.71c.55.91,1.21-.17,1.65-.53,13.85-11.4,19.53-29.22,22.74-46.49.3-1.59-.4-3.86,1.23-4.49,15.38,26.94.27,56.84-6.38,83.84-.89,3.62-3.64,15.58-1.74,18.35.43.62,1.58.8,1.61,1.18.2,2.1-5.15,11.05-3.85,14.4-6.85-8.48-13.93-16.97-20.06-26-5.43-7.99-11.18-21.22-18.08-27.17-.41-.35-1.65-1.5-2.2-1.07,5.01,22.12,21.97,39.77,35.11,57.57,3.83,5.18,7.54,10.48,11.23,15.75-3.86,10.74-5.95,22.98-5.72,34.34-11.36-4.82-24.36-3.61-36.16-6.36-17.29-4.02-29.22-18.84-39.34-32.34,5.2-8.17,12.44-19.8,16.64-28.34,1.83-3.72,6.42-11.83-.55-12.05-5.77-.19-26.4,11.13-31.89,14.77-9.83-10.05-17.16-22.25-25.08-33.8Z"/>
    <path class="cls-6" d="M482.59,396.18c.81,1.9,4.95,11.75,4.94,12.78-.17,16-10.49,27.16-13.39,41.19-2.27,11.02.72,21.31-2.71,32.72-1.36,4.51-3.48,11.39-8.73,11.99-3.05.35-6.49-1.42-8.18,1.09-.5.02-.23-.72-.27-1.09.44-.87.38-1.85,0-2.73.05-.28,1.64-3.9,1.64-5.18v-14.18c0-4.75-4.45-17.59-7.41-21.49-1.23-1.61-4.81-4.2-5.12-5.78.82-11.57.84-23.31,4.18-34.48l.57-.68c12.18-2.83,23.38-8.65,34.49-14.17Z"/>
    <path class="cls-4" d="M454.25,494.86c-.02-.18,0-.37,0-.55,0-.68-.1-1.57,0-2.18.86.36.86,2.37,0,2.73Z"/>
    <g>
      <path class="cls-19" d="M304.34,744.57c.17.01,3.1,1.04,3.21,1.17.3.41-.04,1.53.07,2.1l-.22,2.3c-17.13,11.2-30.47,26.12-40.25,44.54-1.03,1.93-8.12,16.47-7.32,16.92.39.22,6.75-5.26,7.04-5.6-3.02-6.25.9-6.68,6.11-4.77,3.46-2.2,7.03-4.22,10.7-6.06-7.74-11.05,3.42-12.64,6.45-3.08l11.15-4-5.57-17.91c-.5-2.42.29-5.25,3.18-4.8,6.16.96,8.99,15.66,9.34,20.9.38.47,6.04.47,7.14.02l.98.79c.65,1.93,1.43,4.64,2.18,6.54-5.11,1-9.49.13-14.71,1.37-15.74,3.72-33.97,15.88-44.98,27.52-2.87,3.03-9.76,13.79-9.27,1.62.71-17.88,18.39-46.5,30.25-59.69,3.5-3.89,19.99-20.23,24.54-19.89Z"/>
      <path class="cls-13" d="M316.33,787.09c-2.73,1.24-6.33.23-9.27.54.56-4.08-2.8-16.51-5.5-19.31s-5.64-2.75-4.75,2l5.88,18.4-13.62,4.91c.25-4.24-2.86-6.17-6.54-7.09-1.63,3.71,1.47,6.41,2.72,9.27-1.62.4-3.28,1.28-4.73,2.09s-6.25,4.14-7.13,4.36c-1.91.47-4.43-1.9-6.15-.74-1.6,1.07,1.35,3.6.47,5.1l-10.25,8.28c7.09-22.77,22.59-46.12,41.8-60.42,2.77-2.06,7.1-3.4,8.35-6.64,2.53,13.36,4.35,26.3,8.72,39.25Z"/>
    </g>
    <g>
      <path class="cls-11" d="M598.7,868.33c.55-1.65.87-4.22,1.09-6l.93-.76,22.74,11.25c-7.7-16.59-16.21-32.87-25.85-48.43l-1.63-4.58c-.28-3.79-.61-7.64-.55-11.45,7.41,10.49,14.09,21.61,20.26,32.89,5.05,9.23,16.51,29.38,18.6,38.65.13.57.97,1.11.88,1.71-.2,1.32-3.32,2.57-4.59,2.55-1.98-.03-9.25-5.05-11.7-6.3-6.6-3.38-13.47-6.37-20.18-9.53Z"/>
      <path class="cls-15" d="M470.6,561.92c6.51,7.91,14.11,17.76,20.98,25.09,2.79,2.97,4.33,4.21,8.35,5.28,16.98,4.53,29.75,3.37,45.85,13.57,7.89,5,12.69,11.44,18.97,18.11l1.73.04,2.78-6.47c.59,7.89,2,15.76,1.64,23.71-.17,3.76-1.68,8.87-1.05,12.52.23,1.32,2.63,5.22,4.06,5.23,2,0,2.19-3.56,3.54-4.38,1.57,22.57,5.88,45.17,3.81,67.87-.26,2.89-1.38,6.03-1.62,8.74-.62,6.81,3,28.2,5.97,34.36.81,1.69,2.22,1.65,1.65,3.53l-2.49-1.92c-18.55-21.76-33.86-46.14-48.98-70.39-2.31-2.92-4.17-6.19-5.59-9.81l.37-1.3-.54-.49c2.8-4.44,4.47-7.58,5.12-13.33,2.08-18.57-5.05-43.26-12.1-60.48-.63-1.53-5.38-13.13-7-7.5-3.31,14.09-5.86,28.4-7.63,42.93-.21,2.97-1.18,5.38-2.91,7.25l-1.83-1.07c-19.98-26.38-27.88-55.4-33.62-87.73-.09-.52,0-1.07.1-1.64s.27-1.14.46-1.7Z"/>
      <path class="cls-20" d="M470.6,561.92c4.23,26.31,10.82,53.95,24.85,76.83,3.19,5.2,7.22,9.87,10.04,15.31l.89.84c-.41,2.93-2.94,9.73-5.23,11.56-1.17.93-3.22,2.1-3.84.14l-2.33.96c-2,.32-19.78-4.01-22.05-5.21-1.09-.58-2.08-1.24-2.95-2.13-5.09-6.47-11.16-11.25-18.73-14.86l-.81-1.66c2.04-10.13.63-20.56,1.07-30.83.36-8.5,1.57-18.16,2.84-26.6,1.65-10.96,3.7-22.85,9.19-32.52,3.28,1.92,4.89,5.51,7.08,8.17Z"/>
      <path class="cls-20" d="M530.56,685.68c1.94,2.29,2.56,5.46,3.89,7.83.52.92,1.6,1.65,2.23,2.68,15.47,25.19,31.86,50.02,50.57,72.91-1.37,4.52-6.44,10.77-8.72,15.27l-1.12.27c-18.89-29.14-37.77-58.29-56.67-87.44l.55-1.15-.06-1.48c2.76-2.79,5.45-5.67,7.87-8.76l1.46-.12Z"/>
      <g>
        <path class="cls-21" d="M447.16,590.27c1.1-8.68,5.45-36.99,12.02-42.23,5.15-4.11,9.47.3,12.79,4.06s6.29,8.39,9.55,12.26c5.55,6.59,11.38,13,16.93,19.6,8.06,2.55,16.68,3.07,24.93,5.05,14.88,3.57,28.33,10.16,38.8,21.44-.68-10.04-.61-20.25-1.63-30.26-.31-3.04-2.25-9.88-2.13-12.04.13-2.31,5.49-3.23,6.54-1.51,2.81,19.6,9.84,39.19,11.94,58.8.18,1.68.16,11.28.57,11.69.25.25,2.63-.37,3.69,1.49.91,1.59,1.85,9.07,2.2,11.43,3.85,25.34,6.02,53.42,3.83,78.91-.57,6.65-.9,9.34.22,16.26.82,5.1,2.63,9.99,3.12,15.15,1.03-.59,1.42-2.82,1.78-3.94,1.27-3.97,2.39-8.43,3.3-12.51,1.16-5.22,2.3-18.06,4.3-21.87,1.23-2.33,6.01-3.02,7.22-.91,2.37,4.14-.55,24.45-1.43,30.14-2.9,18.79-9.93,38.03-10.27,57.06,1.26,3.5,2.23,8.07.55,11.45,2.51,9.14,4.11,19.56,4.85,29.1.31,3.94.61,7.93.22,11.87-.03.27-.22.53-.44.81s-.52.52-.82.75c1.59.93.86,6.01-1.09,6-2.36,7.09-9.22,14.93-16.35,17.45-1.82,3-7.21,2.68-10.36,1.64-.28.28-.57.55-.9.75-5.14,3.15-26.72-6.33-31.06-10.78-.5-.52-.64-1.28-.75-1.97-1.96.62-5.28-2.35-4.91-4.36-2.15.36-5.96-3.9-5.45-6-1.99.16-3.87-2.46-3.27-4.36-2.25-.21-4.22-2.7-3.82-4.91-3.02-1.62-4.87-4.25-5.45-7.63-.35-.02-.69-.06-1.01-.17-1.23-.4-6.49-8.72-6.08-10.74-1.68.03-2.14-.57-1.64-2.18-2.2-.36-3.51-2.16-3.27-4.36-1.44.59-2.93-.69-2.18-2.18l-1.7-.33c-11.36-12.72-24.12-25.92-40.36-32.04l-1-1.43c-.27-.36-.31-.73-.23-1.16.19-1.05,1.85-6,2.96-5.93.21-.36.61-.87.86-.76,2.73,1.18,13.17,7.01,15.12,8.71l2.01,2.41,1.23-.02c1.9,5.55,4.97,8.26,9.2,8.15l1.01,1.14c.3-.39.7-.79,1.15-.74,2.4.25,17.68,18.43,20.23,21.64l-.11,1.46c5.67,6.77,10.9,13.88,15.7,21.34,11.54,15.94,30.63,34.63,52.01,26.34,11.84-4.59,12.75-18.16,11.67-29.12-3.89-23.77-6.55-47.75.51-71.8-16.3,21.24-15.88,48.26-12.08,73.47.42,4.5.59,10.63-1.01,14.89-.84,2.22-1.02,2.48-3.22,1.38-.39-.19-4.4-7.11-2.53-7.6-1.76-.72-2.72-3.78-1.09-4.91-1.53-1.67-2.37-5.66-.55-7.09l-1.28-1.85c-1.17-13.26-2.02-26.9.05-40.14.48-3.05,2.08-12.46,3.99-14.06.31-.26.67-.47,1.05-.65-1-1.67.79-5.5,2.73-5.45l-.28-1.77c2.86-4.21,5.42-8.56,7.71-13.07l1.3-.43c-3.88-5.19-5.07-10.03-6.36-16.48-1.99-9.9-3.66-19.96-.78-29.76,1.29-21.3-.75-43.53-3.51-64.71-3.87,5.5-8.84-3.26-7.97-7.53,1.74-9.46,1.29-18.99-.09-28.67-.76,2.29-1.62,3.76-4.28,2.93-10.3-12.06-21.55-22.57-37.57-25.99-10.86-1.66-21.39-4.1-31.58-7.34-8.19-7.6-15.69-16.08-22.51-25.43l-2-4.18-1.36.03c-.39-.69-4.91-6.96-5.31-6.61-1.93,1.71-4.83,12.28-5.62,15.43-5.41,21.44-5.94,44.16-5.88,66.11.19,2.85-.48,5.13-2,6.82-1.33,1.16-4.74-1.02-4.36-2.73-1.33-1.05-2.93-4.32-1.09-5.18l-.73-.04c-.43-7.99-.55-16.12-.36-24.4l1.09-.64-1.07-.83c.23-3.21.56-6.41.99-9.6l1.17-.75c-1.3-3.01-.91-6.68,1.09-9.27Z"/>
        <path class="cls-15" d="M512.57,829.62l1.33-.23,6.06,5.54c10.51,10.05,14.96,10.58,13.33,1.58.29-1.19,1.17-1.6,2.36-1.28,11.07,8.89,23.41,17.07,36.76,21.83l1.21,1.45c.42,1.34,2.29,5.35,3.11,6.4.29.36.4,1.49,1.24.69.31-.3,1.6-7.46,1.64-8.46.3-7.04-1.89-16.55-2.2-23.95-.88-20.87.35-38.33,13.2-55.54l4.81-9.63c-1.49,7.41-3.6,14.75-4.74,22.24-1.63,10.68-2.08,20.68-1.24,31.46,1.43,18.38,13.2,51.59-12.53,57.81-20.96,5.07-38.47-12.83-49.52-27.92-5.2-7.11-9.9-14.68-14.82-21.98Z"/>
        <path class="cls-20" d="M491.31,807.26l1.36-4.9c4.21,3.3,9.78,4.45,13.34,8.46s6.74,10.12,10.57,14.24c.53.57,4.94,4.67,5.27,4.82,3.42,1.55,7.47-.6,8.43-4.07,2.38,1.95,5.47,2.44,8.09,3.91,6.94,3.89,13.95,10.69,20.68,15.3,4.26,2.92,9.35,5.35,13.49,8.59.21,1.37.68,3.59,1.09,4.91-7.08-1.72-14.23-5.97-20.54-9.72s-12.45-7.75-17.9-12.63c-1.23-.23-.76.54-.81,1.35-.28,4.11,1.11,8.25-4.86,5.96-3.47-1.34-13.86-10.79-16.95-13.85-3.75-3.71-17.56-21.78-21.26-22.35Z"/>
      </g>
      <path class="cls-11" d="M578.53,784.37c-.76,1.5-2.16,4.09-2.73,5.45-1.96.15-5.15-3.58-4.36-5.45-.96-.89-1.91-1.79-2.79-2.75s-1.77-1.92-2.49-2.98c-14.75-21.54-28.83-43.57-42.74-65.66-.69-1.09-1.23-2.27-1.76-3.47s-1-2.42-1.45-3.65c-1.99.42-5.02-4.34-3.27-6-.27-1.98,2.45-4.22,4.36-3.82l57.24,88.32Z"/>
      <path class="cls-14" d="M595.98,819.8c11.23,17.26,20.48,35.72,29.44,54.24l-.28.82-25.35-12.54c1.57-12.41-2.86-29.48-3.82-42.53Z"/>
      <path class="cls-6" d="M575.81,789.82c-6.79,16.31-5.56,39.3-3.82,56.7-2.95-1.46-5.48-3.62-8.18-5.45-2.54-3.38-3.3-8.95-3.66-13.24-.94-11.22.25-22.72,3.54-33.4,1.05-3.41,3.89-10.42,7.75-10.07,1.22,1.76,3.05,3.69,4.36,5.45Z"/>
      <path class="cls-6" d="M459.15,794.72c15,4.03,33.4,22.25,43.06,33.8,1.14,2.06-1.52,1.74-2.99,1.51-3.93-.6-20.91-11.9-24.71-14.88-2.4-1.89-4.31-3.71-6.15-6.2-3.38,1.46-4.94.94-8.13-1.15-.98-.91-5.19-3.92-5.34-4.71-.26-1.4,2.85-6.73,2.08-8.92.73.49,1.5.36,2.18.55Z"/>
      <path class="cls-14" d="M502.22,828.53c.54.64,1.4,1.2,2.18,2.18-3.97,2-9.19,5.87-11.99,9.27-.65-1.65-1.98-3.43-3.04-4.86-2.44-3.26-14.79-19.36-17.6-19.94-.95-.2-1.78.53-3.32-.01-1.66-.59-6.55-5.81-8.21-7.35,1.56-.11,3.87,1.13,5.21,1.03,1.17-.08,1.73-1.68,3.52-.78.4.2,3.16,3.87,4.4,4.88,3.16,2.58,22.5,15.13,25.54,15.89.96.24,2.63.7,3.31-.31Z"/>
      <path class="cls-20" d="M479.87,798l-17.99-10.36c.14-1.48-1.33-10.85,2-9.41,4.5,1.95,11.38,10.75,13.9,15.04.88,1.5,1.37,3.46,2.09,4.73Z"/>
      <path class="cls-14" d="M520.21,705.86c16.48,26.05,33.66,53.26,51.24,78.51-4.59,3.22-6.48,9.04-7.82,14.26-2.21,8.6-3.13,18.54-2.53,27.44.33,4.9,1.63,10.21,2.72,15-6.99-4.74-14.2-9.92-21.3-14.41-2.47-1.56-12.15-7.8-14.13-8.28-2.32-.56-3.93,4.07-4.63,5.78-4.99-4.96-8.36-11.26-12.83-16.61-3.9-4.67-3.35-3.17-8.01-5.62-2.29-1.2-11.31-7.49-12.55-7.65-.71-.09-1.44.06-2.01.49-1.26.94-.26,2.54-1.94,2.14-3.06-7.52-8.12-14.25-14.18-19.63.44-1.18,1.47-2.33,3.1-3.45,2.94-4.48,6.19-8.6,9.73-12.35,3.7-.14,6.44-.67,9-3.47l-2.98-11.29c-1.68-6.29-.44-12.5,1.76-18.51,9.04-7.14,17.93-14.34,26.03-22.6l1.33.25Z"/>
      <path class="cls-6" d="M520.21,705.86l-14.17,13.37c-1.84,1.57-11.79,8.61-12.27,9.54-.81,1.6-2.5,9.31-2.51,11.17,0,1.37.5,4.33.74,5.84.37,2.36,3.36,11.49,3.05,12.58-.17.6-3.22,2.92-3.9,3.23-1.92.87-5.59.7-6.28,1.09s-7.34,10.53-9.16,12.37c-.86.87-2.26,1.97-3.48,2.24-1.68-1.49-3.56-2.87-5.45-4.09,1.56-1.06,1.94-4.14,3.01-5.17.78-.75,2.08-.73,2.98-1.38,2.99-2.2,2.81-12.94,3.83-16.62.25-.26,4.46,4.12,5.74,4.36,1.43.27,4.5-.1,4.65-1.92.07-.89-3.44-6.85-4.11-8.45-1.81-4.31-2.62-8.88-4.65-13.07,2.4-1.55,5.25-3.94,7.65-5.7,10.55-7.72,21.31-16.34,31.05-25.37.17,2.2,2.08,4.11,3.27,6Z"/>
    </g>
    <g>
      <path class="cls-7" d="M337.05,800.72c2.51,13.21-8.65,27.79-17.44,36.88,12.26-3.22,23.29-10.92,29.88-21.84l1.74-.87c2.28,2.54,3.44,3.42,5.45,6.54,1.22,4.08,1.56,8.41,1.04,12.99l1.14-.45c1.04,5.12,2.54,9.35,4.36,14.18-1.63-1.06-.86-.37-1.1.79-.76,3.66-1.63,12.43-4.62,14.47-4.05,2.78-4.89-.88-5.58-4.24-.72-3.5-1.06-8.76-1.23-12.4-.32-6.78.23-13.65-.01-20.44-6.8,7.06-15.62,13.92-24.93,17.31-5.4,1.96-16.71,4.95-21.14.16-4.05-4.37,4.49-6.64,7.33-8.52,8.73-5.79,13.56-16.13,17.49-25.3.22-.51,1.35-.62,1.63-1.91.59-2.66-.01-6.23,0-9l-.23-4.23.77-.13c.62.22,1.39-.36,2.44.55,1.21,1.05,2.02,4.16,3.01,5.45Z"/>
      <path class="cls-3" d="M351.22,814.9c-6.79,12.68-20.78,22.09-34.88,24.53l7.61-7.91c5.44-7.39,11.08-15.82,12.5-25.12.28-1.83-.23-3.83.6-5.67,3.24,4.22,10.08,9.61,14.17,14.18Z"/>
    </g>
    <path class="cls-3" d="M398.64,838.34c.54.18,1.39-.46,1.04.76-1.22,4.25-6.34,11.06-9.21,14.5.77-5.44,2.53-10.79,2.17-16.36,2.16.18,3.96.41,6,1.09Z"/>
    <path class="cls-3" d="M358.85,833.98l-2.17,9.27v-21.81c.77,1.2,1.52,1.78,2.27,3.45,1.67,3.75,2.52,5.62-.1,9.09Z"/>
    <g>
      <path class="cls-7" d="M435.71,809.99l1.47.44c1.31,3.43,2.29,6.96,2.94,10.59,5.05,8.34-2.17,12.33-8.92,6.66,4.5,7.58,9.7,14.73,15.58,21.44l.38,1.76c1.71-.61,5.37,1.84,5.45,3.82.05.04-.13.68.37,1.11,1.28,1.1,4.1,1.43,3.37,3.96-.59,2.05-3.64,2.32-5.38,2.02-.86,1.65-5.48.14-5.45-1.64-.39.16-.79.3-1.19.37-2.87.47-15.42-5.95-17.34-9.09-2.47.91-5.54-2.04-6.54-4.36-.06-.05.09-.71-.16-.91-4.68-3.71-9.29-7.32-13.46-11.63-1.84,10.42-10.94,25.77-19.36,32.17-2.64,2.01-9.23,5.07-8.43-.77.3-2.19,4.01-8.58,5.03-11.9s1.98-6.89,2.04-10.23c1.47-2.7,1.93-6.28,5.36-6.99.89-.18,1.09.44,1.18.44,1.28,1.42,1.54,3.45.79,6.09l-1.08,5.92c.68.05,6.02-8.66,6.28-10.41.71.8.72.63.01-.51,2.42-2.84,7.63-1.74,2.73-5.45l-.66-1.26c.76-1.64,1.52-3.22,2.29-4.73.79-.43,2.37-.69,3.27-1.09l2.03.08c8.18,8.96,17.14,16.33,27.46,22.56-6.63-8.27-11.84-17.2-15.61-26.81l.3-1.29c1.77-.82,5.95-3.25,7.63-4.36,1.02.39,2.07,1.1,3.15,2.13-.67-1.67-.81-3.11-.42-4.31,1.43-1.06,3.64-2.69,4.91-3.82Z"/>
      <path class="cls-19" d="M453.16,809.99c1.35,7.67,1.92,15.38,1.66,23.19l-2.2,21.51c-1.91-1.47-3.4-1.97-5.45-3.82-.46-.84-.71-1.73-.74-2.67,1.98-14.25,2.63-28.32-1.48-41.94,0-1.27.51-1.8,1.68-1.18.84,2.68.66,5.28,4.11,5.49,1.04.06,2.14-.6,2.43-.58Z"/>
      <path class="cls-13" d="M435.71,809.99c1.55-1.38,3.2-2.85,4.64-4.35.97-1.01,3.58-5.12,4.36-5.45,1.04-.44.78.67.95,1.2.39,1.21.57,2.5.95,3.7-1.01.52-.47,1.92-.31,2.75.77,3.9,2.21,7.64,2.51,11.68.75,10.16-.28,21.31-1.66,31.37-4.97-4.45-9.53-11.29-13.09-16.77-1.16-1.79-4.37-6.36-4.89-8.04-.09-.28-.15-.89.26-.8,3.1,1.62,7,5.98,10.28,3.19,2.66-2.26.06-4.5-.7-7.31-1.03-3.84-1.29-7.65-3.3-11.14Z"/>
      <path class="cls-3" d="M420.45,820.35c4.07,11.26,11.63,20.87,18.53,30.53-1.48,1.25-19.92-12.71-22.09-14.7-3.66-3.36-6.53-7.85-10.62-10.37,4.72-2.08,9.68-3.36,14.17-5.45Z"/>
      <path class="cls-9" d="M430.81,813.81c1.15.57,1.92,6.14,1.63,6.54-1.63-1.13-3.92-2.16-4.36-4.36.87-.57,1.81-1.5,2.73-2.18Z"/>
    </g>
    <path class="cls-13" d="M445.52,860.15c-1.06,5.81-2.45,11.69-4.22,17.32-1.46,4.66-3.27,10.45-6.14,14.3l-4.36-23.44c13.04,1.98,8.07-9.55-1.09-3.82-.48-4.4-1.24-8.94-2.73-13.08,5.7,3.44,12.2,6.66,18.53,8.72Z"/>
    <g>
      <path class="cls-13" d="M321.24,586.46l.56-2.96c9.15-8.62,18.97-16.97,29.94-23.3,3.7-2.14,12.72-7.23,16.44-7.62,1.67-.17,1.89.11,2.32,1.5.3.98-9.73,17.04-10.53,17.69-.32.52-.82.78-1.42.88-6.55-2.07-7.42-.43-2.1,3.68.79,2.32-8.25,14.22-9.97,15.97l-1.81.7c-.62.12-.98.66-1.09,1.64l.4,1.41c-2.14,3.35-3.76,6.93-4.87,10.74-11.86-2.18-10.14,2.47-.33,4.2.69,6.22,2.13,12.3,5.16,17.88.54,1.26.7,2.3-.67,2.57-4.43.06-8.95.79-11.8,4.52,4.82-.13,9.62-1.29,14.41-3.48,5.15,6.89,10.02,14.07,14.61,21.54l.19,1.46c-5.86,4.12-11.91,7.96-18.16,11.53-5.69,4.15-2.79,3.74,2.33,2.07,7.29-2.38,12.24-6.7,17.49-11.99,4.33,3.68,10.87,10.84,11.03,16.84.23,8.49-10.25,18.53-17.52,21.86-5.83,2.67-22.7,4.95-28.43,1.5-5.97-3.6-9.76-27.96-8.92-35.02-.69-12.53,2.35-29.1,2.75-42.23.33-10.79.35-22.78-.02-33.55Z"/>
      <path class="cls-19" d="M357.76,585.37l-.02,2.01c-3.21,4.18-6.25,8.46-9.13,12.86l-1.76.94c1.19,1.16-.54,4.99-2.18,4.91l.58,1.33c-1.79,8.96,2.95,17.33,7.66,24.6,6.6,9.54,13.44,18.94,20.53,28.18,3.63,5.23,7.73,11.5,4.47,17.85,1.44,1.95-1.31,6.27-2.68,8.22-5.47,7.8-12.26,14.96-21.77,17.07-8.79,1.95-25.44,4.9-31.7-2.93-.89-.19-2.99-3.79-3.27-4.91-.57-.69-.67-1.15-.08-1.69-1.72-3.88-2.53-7.69-2.1-11.95l2.18-19.63c.37,6.69,3.47,22.49,5.99,28.63,3.22,7.87,6.14,6.95,13.93,6.83,12.86-.21,20.14-2.36,28.61-12.28,10.31-12.08,3.69-17.36-4.65-27.54-5.46,7.61-15.82,13.48-25.35,13.62,2.72-5.55,8.38-7.14,13.04-10.12,3.28-2.11,6.18-5.08,9.85-6.23l-14.22-21.77c-5.67,2.04-9.91,5.07-16.31,3.24,3.37-4.75,8.39-6.68,14.17-5.99-1.52-3.2-3.13-6.36-4.08-9.81-.83-3.01-1.54-6.1-1.39-9.24-11.38-.5-11.28-9.48.56-5.47.27-4.11,2.75-8.02,4.91-11.45.09-.93.45-1.48,1.09-1.64,2.23-3.39,5.09-6.46,7.31-9.86.62-.95,3.9-5.94,3.55-6.44-.47-.69-5.07-2.36-3.15-5.43,1.17-1.88,5.65.77,6.48.23l10.89-18.29c-17.66,5.78-32.31,17.31-45.8,29.7-1.04.95-2.5,2.07-2.72,3.55-.1-2.81-.34-6.29-.55-9.27.05-1.56.92-2.65,2.61-3.26,1.01-1.58,2.14-2.31,3.38-2.19l.63-1.98c1.93-1.95,11.69-10.02,13.48-10.12.38-.02.77.03,1.15.1l-.1-1.23c7.81-4.65,16.05-9.38,24.6-12.69,7.83-3.03,15.06-3.41,10.86,7.66-3.46,9.13-12.03,22.94-17.75,31.08l-1.81.81Z"/>
      <path class="cls-22" d="M344.68,593c-.35.54-.76,1.1-1.09,1.64-.1-.92.04-1.64.82-2.17l.27.53Z"/>
    </g>
    <path class="cls-6" d="M353.94,615.9c-.97.36-.09,1.7.14,2.31,2.07,5.5,4.56,10.82,7.6,15.85,7.77,12.88,22.32,22.4,19.49,39.33-.41,2.48-2.49,3.39-3.24,4.66-.09-2.4.2-4.83-.14-7.22-.92-6.34-15.44-23.12-19.93-29.68-6.4-9.37-17.32-23.23-13.18-35.07,3.11,3.22,6.12,6.64,9.27,9.81Z"/>
    <path class="cls-6" d="M467.33,678.6c.92-5.56-2.2-9.48-4.36-14.17,1.15.65,7.75,1.98,8.08,2.27.41.35.3,3.15,1.46,3.72.59-.38.47-2.4.86-2.68.94-.66,15.41,3.92,17.94,3.77-3.31,2.13-17.6,7.64-21.26,7.63-.93,0-1.84-.32-2.73-.55Z"/>
    <g>
      <path class="cls-19" d="M530.56,685.68c-2.36,3.21-6.4,7.52-9.27,10.36-1.35,1.33-2.96,2.51-4.36,3.82-.29.65-.6,1.29-.98,1.89s-.75,1.18-1.24,1.62c-11.2,9.92-23.24,19.25-35,27.89l-1.48-.32c-1.63,1.05-3.2,1.84-4.91,2.73-7.75,4.03-13.98,7.9-21.98,2.09-11.77-8.55-17.15-25.84-15.56-39.91.27-2.41.5-3.67,2.39-5.25,8.37-6.97,21.94-8,31.89-11.45l.13-.73c6.02-1.69,11.96-3.83,17.81-6.41l3.32-.49c1.86-1.19,4.21-3.76,6-4.91.14-.09,1.35.12,2.15-.28,3.45-1.75,5.02-8.79,6.03-12.26,4.68-15.98,4.4-33.46,8.88-48.64.81-2.76,1.94-5.9,4.97-3.11,4.52,4.16,12.31,30.72,14.02,37.77,2.72,11.23,5.23,29.35.88,40.28-.12.3-3.17,4.63-3.68,5.32Z"/>
      <path class="cls-13" d="M527.84,642.06c-9.1-.21-7.26,9.21,1.08,4.91,2.35,10.11,2.59,21.09-.57,31.05-3.1-.55-5.87-3.45-8.65-.17-.61,2.13,3.39,4.97,5.4,5.1-6.29,8.1-14.22,14.76-22.16,21.21-4.92-3.23-6.86-10.09-13.27-11.4.12,6.43,4.59,11.14,8.71,15.54l-20.56,15.46c-1.04.25-5.44-3.76-6.41-4.82-4.1-4.49-6.01-11.28-11.71-14.73-1.14,9.65,6.01,17.43,12.53,23.44-5.24,1.54-9.52,6.34-15.26,4.09-6.34-2.49-14.61-17.95-15.26-24.53-.39-3.97.2-8.19.08-12.18,8.98-5.67,19.47-6.67,29.47-9.51,9.27-2.63,21.2-6.71,28.96-11.91,6.09-4.08,7.65-6.42,10.04-13.42,4.92-14.41,5.53-31.5,8.31-46.48l9.26,28.34Z"/>
    </g>
    <g>
      <path class="cls-14" d="M353.94,615.9c5.11,5.16,10.85,10.84,16.35,15.55,1.96,1.68,9.61,8.18,11.42,8.74,1.18.37,2.36.3,3.57.24,6.31-.29,13.03-2.22,19.36-2.72-2.25,1.93-6.68,7.55-.82,7.11,3.45-.26,9.01-6.96,10.36-6.96.2,0,2.33,1.45,3.53,1.76,4.87,1.27,9.95,1.54,15.01,2.98,7.39,2.1,14.7,5.7,20.97,10.1-6.93,3.33-2.48,5.29.24,9.59,3.7,5.86,6.23,14.49,13.4,16.31.58-1.41,2.66-.9,2.73.55l-.96,1.47-19.87,5.39c-10.93,3.93-13.46,5.89-12.55,17.56,1.45,18.57,14.64,44.03,35.27,29.6l1.38.51,2.18,7.63c-4.29-.94-4.32,4.28-4.83,7.44-.3,1.88-.23,6.12-.69,7.49-.32.95-1.88.73-2.62,1.75-1.64,2.24-2.97,7.75-5.27,11.09-3.25,4.72-7.5,6.68-6.23,13.68-.17.19-1.28-.52-1.84-.43-3.02.51-1.21,12.88-4.14,14.61-.17-2-4.55-9.82-7.05-8.13-.89.6-.26,4.84-.89,5.95-6.97,8.37-13.56,15.91-23.87,20.27-6.82,2.89-15.25,3.29-20.8,8.09-1.09.95-2.91,2.55-2.94,4.05-.02.94,1.33,3.62-.37,4.11-.82.24-3.01-1.26-3.53-1.89-1.57-1.9-.71-4.58-4.21-5.6-5.52-1.6-2.68,5.19-2.85,8.29-.27,4.89-3.57,12.29-6.55,16.1-.4-5.45-1.05-12.44-3.71-17.29-.52-.94-4.6-6.29-5.25-6.74-2.26-1.56-1.89.72-2.21.58-2.56-4.62-5.16-9.09-8.72-13.09-2.36-2.66-5.28-4.68-7.65-7.07-6.44-6.46-12.94-12.87-19.14-19.56-2.22-1.49-5.41-1.04-6.42,1.57-.39.99.08,2.64-.85,2.71-2.79-9.68-5.8-19.36-7.47-29.34-1.34-8.05-1.66-16.14-2.45-24.27-.58-1.71-3.75-1.21-3.73-1.74.78-6.95,2.69-13.21,5.54-19.54.78-1.73,3.5-5.39,3.67-6.76.15-1.22-.89-1.7-.9-2.06-.01-.33,3.93-4.08,4.24-5.17.05.01.39-.64,1.04-.31,1.23.63,2.46,2.54,4.42,3.3,5.19,2.01,23.99-.15,29.58-2.02,6.78-2.27,15.48-11.94,19.02-18.05,1.04-1.79,1.29-3.91,2.09-5.27,4.84-8.16,2.06-17.57-3.25-24.98-9.49-10.58-16.84-22.41-22.05-35.48-.48-1.39-.16-2.28,1.31-1.7Z"/>
      <path class="cls-3" d="M401.37,832.89c-.9-.68-3.24-1.16-2.69-2.93.2-.66,3.46-2.6,4.33-3.07,1.06,2.09-.96,3.97-1.64,6Z"/>
      <path class="cls-5" d="M331.59,794.72c-.55,1.44-.54,2.85-.55,4.36l-1.08-5.45c.16-.21,1.18.93,1.63,1.09Z"/>
      <path class="cls-19" d="M380.66,772.37c-.77.48-1.98,3.41-2.99,2.18-1.55-1.9-1.97-6.36-1.64-8.72-1.56.77-1.9,4.02-3.12,4.54-2.35,1-7.52,1.03-10.24,1.46,1.76,2.71,2.66,3.59,5.99,3.82-1.56,1.58.04,5.33-2,6.58-.61.37-7.97,1.91-9.23,2.08-1.4.19-8.87.74-9.48.05l1.09-2.17c-1.45.31-2.77-1.2-3.78-1.39-.78-.15-1.87.81-3.05.88-1.74.11-3.41-.8-5.17-.59l1.63-3.26c-.31-.42-8.55-2.69-9.95-3.4-4.93-2.5,1.73-4.51,1.82-5.1.22-1.49-2.42-3.56-2.76-4.87-.41-1.57,2.15-.08,1.62-1.62-.64-1.84-3.01-4.36-2.71-6.82,2.01,1.28,3.35,3.44,5.19,4.89,5.15,4.09,4.76,1.96,1.9-2.44-.4-1.24,4.52,2.02,4.9,2.18,3.73,1.59,7.87,2.08,10.9,5.18-.28-.99.38-5.7,1.91-5.47,3.44.52,3.45,6.8,4.42,7.09,1.11.34,3.76-2.42,6.22.3,1.27,1.4-.42,3.3,3.26,0l-23.68-19.95c-5.3.66-9.28-3.21-14.48-3.77-.23-1.41.15-.85.77-1.14,1.25-.58,6.3-1.13,6.31-1.86l-2.71-4.08,4.36.53-3.81-7.63,4.35,1.63-7.63-14.17c2.81-.13,4.56,2.64,7.08,3.26.79-.85-2.94-7.74-3.02-8.98-.1-1.38,1.18-4.12,2.75-4.11,2.09,0,7.34,7.07,10.09,7.64-.46-1.33-.07-7.62,1.37-7.62.21,0,2.25,2.3,2.69,2.75l1.94,3.78c-.25-2.46.41-4.86,1.39-7.09.21-.48.08-1.48,1.06-1.08,1.95.79,3.17,7.77,3.56,9.8l1.9-4.35c4.09,5.08,3.96,11.28,3.23,17.46,4.42,1.39,9.1.86,13.4,2.71-1.73,2.54-4.39,4.72-7.63,4.36.53.52,2.75,3.73,2.99,3.75s3.79-1.72,4.47-2.03c1.82-.83,6.67-3,8-4,.62-.47,1.11-.58.9-1.55-4.09.24-9.02-.18-11.99-3.27,3.6.61,7.44-1.96,10.64-2.2,1.42-.11,3.41.7,3.53.57.17-.18,1.49-4.41,1.54-4.79.75-5.43-4.19-14.11-4.8-19.75.91-.93,10.07,7.57,8.73,10.35.73-.42,1.97-3.03,2.08-3.68.37-2.14-2.16-7.23-2.59-9.72-.23-1.33-.72-8.26-.04-8.95,4.12,3.24,6.09,8.13,7.35,13.08,2.57-1.73.77-3.98.8-6.24.03-2.5,1.51-6.31,1.66-9.02l3.19,5.25,1.43,4.02c2.43-2.57,1.08-8.26,3.26-11.46,1.2-1.74,2.35,3.94,3.55,2.74.57-.57,1.98-8.81,3.01-9.27,1.12,1.89,1.93,3.79,2.18,5.99,2.49-3.66,3.19-8.01,4.91-11.99,2.25,4.56,2.49,9.92.82,14.71,13.25-2.93,1.84,9.34,1.64,15.27,2.38-.58,4.5-2.18,6.94-2.59.77-.13,2.01-.66,1.77.68-3.06,3.25-5.22,7.27-8.36,10.45-1.58,1.6-4.72,1.91-3.91,5.64.83-1.22,8.15-7.3,9-6.53-3.78,4.16-5.31,10.35-8.73,14.44-1.03,1.23-3.73,1.61-2.45,4.09l5.72-3.27c.13.75-.17,1.38-.38,2.07-.68,2.25-8.55,19.04-9.61,20.1-3.54,3.51-2.66,2.88-5.18,7.09-1.46,2.44-3.06,4.79-4.45,7.25,1.56-.15,2.88,2.9,4.01,2.69.27-.05,4.3-2.99,4.44-3.23.66-1.2-.12-3.6,1.24-4.37,2.81-1.58,3.77,2.3,4.84,2.65.3.1,5,.61,5.26.55,1.12-.28,5.83-4.94,7.74-5.37l.54,2.72,6-4.9c1.58,2.87-.53,5.35-.55,8.17,2.63-2.32,5.7-4.24,8.7-6.02.42-.25.96-1.09,1.39-.24-1.4,5.27-4.39,10.52-9.82,12.27,4.4,3.97,2.19,5.62-2.18,7.9,1.43,1.51,3.46,2.82,3.26,5.18-2.02-.81-4.15-.3-6.14-.67s-2.94-1.85-4.76-2.05c1.7,2.52,5.84,4.47,0,4.36,1.86,3.21,6.89.45,9.81,2.99-2.64,2.08-5.98,3.1-9.26,3.55,3.59,4.82-7.25,5.95-10.37,6.79l.56,3.01c-2.02.15-3.75.09-5.44-1.09l.54,2.72c-2.41,1.03-4.18-1.82-5.28-2.09-.86-.21-2.21.59-4,.24-1.56-.31-5.68-2.95-6.26-2.9-.38.03-3.04,2.67-5.17,1.49-.35-1.7.42-2.67,1.1-4.07-1.84-1.09-4.41-.21-5.89-2.73.96-2.18,2.9-2.27.98-4.64h1.64c-2.29-1.91.08-3.13-.05-4.02-.11-.71-3.72-3.91-3.22-5.8-.52-.42-8.72,7.37-9.26-2.73l1.2-1.73c18.24-7.5,27.42-23.84,30.84-42.63,1.83-10.5,4.37-20.8,7.6-30.92-1.24-.37-18.68,11.24-18.5,15.03-.24,2.72-1.31,3.82-3.21,3.31-7.15,17.2-13.87,35.66-16.7,54.51l-1.23,1.34Z"/>
      <path class="cls-13" d="M361.03,744.57c.95.15,4.66.45,4.85.6.16.13.98,3.85.95,4.06-.12,1.02-2.3,1.33-2.53,2.43,1.06.03,2.79-.37,3.19.9.84,2.67.25,7.12,1.17,10l-1.64-.81-19.38-16.6c-1.3-1.75-1.46-11.22-2.02-14.34-.62-3.46-1.9-6.79-2.57-10.23,8.04,6.16,17.92,11.28,21.8,21.26-1.73.37-3.78.63-5.45,1.1l-1.11.02c-7.31-5.88.02,8.47,1.54,4.17-.09-1.33.31-2.19,1.21-2.56Z"/>
      <path class="cls-13" d="M418.27,790.37l-10.49,2.63-9.67-5.9c2.72.53,5.89-.59,8.36-.51,3.92.12,7.93,3.24,11.8,3.78Z"/>
      <path class="cls-13" d="M351.22,776.73c-.5-.18-1.43.02-2.01-.42l-5.62-2.84c2.96.02,6.43-1.77,9.24-.8l8.2,5.15c-3.2.61-5.19.8-8.36-.11-.72-.21-1.18-.88-1.45-.98,2.01-1.46,2.18-1.92.5-1.38l-.5,1.38Z"/>
      <path class="cls-3" d="M359.4,742.93c-.69.19-1.36.66-2.18.55.15,1.3,2.64.9,3.81,1.08.57,9.99-7.95,1.49-7.04-3.78,2.32-.96,4.22,0,5.41,2.14Z"/>
      <path class="cls-3" d="M421.98,768.69c3.76-.06,4.81,3.93-.2,4.74-8.59,1.39-6.7-4.62.2-4.74Z"/>
      <path class="cls-18" d="M427.53,782.74c.1.93-1.88.59-2.47.57-2.96-.13-5.11-.8-8.18.44l-4.6-2.1c3.02.88,7.54-1.32,10.06-1.09,1.37.13,3.28,2.56,5.19,2.18Z"/>
      <path class="cls-18" d="M379.02,752.75c-.18,3.08-1.76,4.64-4.35,5.99-.24-3.85.34-5.58,4.35-5.99Z"/>
      <path class="cls-1" d="M396.46,781.09l-.54-4.9c3.07.19.38,2.99.54,4.9Z"/>
      <path class="cls-25" d="M374.11,748.93l1.63-.55c.06,1.52-1.07,2.19-1.63.55Z"/>
      <g>
        <path class="cls-13" d="M380.66,772.37c1.1-12.42,7.59-32.42,12.13-44.3.65-1.7,4.77-12.53,5.34-12.95.32-.24,1.88.79,2.16.55-.13-4.41,4.15-8.22,7.38-10.89,1.67-1.38,13.23-9.11,14.43-8.19-7.43,18.27-6.79,39.18-16.81,56.52-5.51,9.53-14.61,16.05-24.62,20.35-.02-.35-.03-.74,0-1.09Z"/>
        <path class="cls-14" d="M400.29,773.46c.27-1.17-.99-3.36-.46-4.26.14-.23,3.72-2.6,4.26-3.37-.54,1.23,1.13,2.86,1.04,3.47-.15.92-3.99,3.24-4.84,4.17Z"/>
        <path class="cls-3" d="M403.39,726.69c4.94-1.13,4.3,2.2,3.91,6.09-.39,3.82-4.75,15.57-9.13,9.27-2.72-3.92.82-14.34,5.22-15.35Z"/>
      </g>
      <path class="cls-23" d="M407.38,791.99c-.61-.41-1.02-3.97,1.35-3.26,1.9.57.42,4.47-1.35,3.26Z"/>
      <path class="cls-3" d="M351.22,776.73c-.82-.35-1.13-2.46.95-2.62,3.26-.25,1.62,3.72-.95,2.62Z"/>
    </g>
  </g>
</svg>